<svg xmlns="http://www.w3.org/2000/svg" width="283.253" height="282.556" viewBox="0 0 283.253 282.556">
  <g id="Group_84" data-name="Group 84" transform="matrix(-1, -0.017, 0.017, -1, 281.176, 285.468)">
    <path id="Path_515" data-name="Path 515" d="M308.168,1.831h.076a2.089,2.089,0,0,1,.544.08l-.047,1.807a2.825,2.825,0,0,0-.653-.08h-.071a2.7,2.7,0,0,0-2.564,2.389,4.857,4.857,0,0,0-.109.889l-.151,5.615-1.892-.052.194-7.242c.033-1.239.038-2.308,0-3.287L305.169,2l.009,2.067h.085a3.174,3.174,0,0,1,2.9-2.233m0-.946a3.786,3.786,0,0,0-2.152.681.946.946,0,0,0-.823-.525L303.519.994H303.5a.946.946,0,0,0-.941.984c.033.88.033,1.873,0,3.226l-.194,7.242a.95.95,0,0,0,.26.676.925.925,0,0,0,.662.293l1.892.052h.024a.947.947,0,0,0,.946-.922L306.3,6.93a3.979,3.979,0,0,1,.095-.733c.076-.369.435-1.622,1.632-1.622h.047a1.723,1.723,0,0,1,.445.057.947.947,0,0,0,.8-.166.957.957,0,0,0,.374-.728l.047-1.807a.95.95,0,0,0-.691-.937,2.977,2.977,0,0,0-.771-.114.914.914,0,0,1-.109,0Z" transform="translate(-159.345 -0.464)" fill="#f4cfc9"/>
    <path id="Path_516" data-name="Path 516" d="M321.653,2.856c.161,0,.326.009.5.024,3.425.317,4.054,3.41,3.879,5.34a8.246,8.246,0,0,1-.147.885l-7.369-.681a3.376,3.376,0,0,0,3.259,3.973c.326.028.624.043.9.043a6.407,6.407,0,0,0,2.053-.317l.2,1.4a7.725,7.725,0,0,1-2.521.378c-.317,0-.662-.014-1.026-.047-3.231-.3-4.962-2.6-4.669-5.761.279-2.994,2.166-5.231,4.948-5.231m2.578,4.716c.132-1.211-.213-3.145-2.356-3.344a2.736,2.736,0,0,0-.274-.014c-1.75,0-2.672,1.6-2.933,2.843l5.563.516M321.653,1.91c-3.183,0-5.548,2.445-5.884,6.083-.35,3.784,1.821,6.452,5.525,6.792.378.033.752.052,1.112.052a8.626,8.626,0,0,0,2.833-.43.945.945,0,0,0,.629-1.026l-.2-1.4a.939.939,0,0,0-.435-.667.952.952,0,0,0-.5-.147,1.015,1.015,0,0,0-.289.043,5.391,5.391,0,0,1-1.769.274c-.251,0-.525-.014-.809-.038a2.358,2.358,0,0,1-2.37-1.991l6.305.582a.543.543,0,0,0,.09,0,.946.946,0,0,0,.927-.757l.019-.09a7.127,7.127,0,0,0,.142-.894c.27-2.928-1.088-6.031-4.735-6.371-.2-.014-.4-.024-.591-.024Zm-1.679,4.319A1.855,1.855,0,0,1,321.6,5.164c.061,0,.123,0,.189.009a1.529,1.529,0,0,1,1.107.516,1.932,1.932,0,0,1,.364.842l-3.283-.3Z" transform="translate(-166.392 -1.007)" fill="#f4cfc9"/>
    <path id="Path_517" data-name="Path 517" d="M345.161,6.246a6.7,6.7,0,0,1,1.168.1,6.393,6.393,0,0,1,2.526.984l-.676,1.386a4.418,4.418,0,0,0-2.1-.866,4.658,4.658,0,0,0-.747-.066,3.668,3.668,0,0,0-3.59,3.363,3.611,3.611,0,0,0,2.937,4.5,5.392,5.392,0,0,0,.946.085,5.88,5.88,0,0,0,1.457-.2l.08,1.471a5.793,5.793,0,0,1-1.665.213,8.185,8.185,0,0,1-1.419-.123,5,5,0,0,1-4.262-6.182,5.29,5.29,0,0,1,5.35-4.669m0-.946a6.21,6.21,0,0,0-6.281,5.444,5.923,5.923,0,0,0,5.033,7.275,9.379,9.379,0,0,0,1.58.137,6.843,6.843,0,0,0,1.953-.255.945.945,0,0,0,.653-.951l-.08-1.471a.945.945,0,0,0-1.173-.866,4.792,4.792,0,0,1-1.23.175,4.569,4.569,0,0,1-.785-.071,2.614,2.614,0,0,1-1.774-1.078,3.146,3.146,0,0,1-.393-2.327,2.713,2.713,0,0,1,2.658-2.573,3.6,3.6,0,0,1,.586.052,3.444,3.444,0,0,1,1.66.667.937.937,0,0,0,1.447-.312l.676-1.386a.942.942,0,0,0-.289-1.178,7.294,7.294,0,0,0-2.923-1.154,6.931,6.931,0,0,0-1.32-.128Z" transform="translate(-178.53 -2.793)" fill="#f4cfc9"/>
    <path id="Path_518" data-name="Path 518" d="M363.416.946a1.268,1.268,0,0,1,.293.033,1.134,1.134,0,0,1,.875,1.428,1.1,1.1,0,0,1-1.116.913,1.7,1.7,0,0,1-.336-.038,1.139,1.139,0,0,1-.861-1.4,1.17,1.17,0,0,1,1.145-.932m-1.57,3.869,1.864.43L361.353,15.51l-1.868-.43,2.36-10.264M363.416,0h0a2.117,2.117,0,0,0-2.062,1.665,2.092,2.092,0,0,0,.937,2.28l-.232-.052a1.086,1.086,0,0,0-.213-.024.911.911,0,0,0-.5.147.946.946,0,0,0-.421.591l-2.36,10.264a.944.944,0,0,0,.709,1.135l1.868.43a1.086,1.086,0,0,0,.213.024.953.953,0,0,0,.922-.733l2.356-10.264a.945.945,0,0,0-.709-1.135l-.274-.061a2.026,2.026,0,0,0,1.859-1.656,2.165,2.165,0,0,0-.232-1.58,2.093,2.093,0,0,0-1.362-.97,1.958,1.958,0,0,0-.5-.061Z" transform="translate(-188.951)" fill="#f4cfc9"/>
    <path id="Path_519" data-name="Path 519" d="M371.064,11.7l1.646.5-.435,1.755.043.014a4.067,4.067,0,0,1,2.772-1.1,4.912,4.912,0,0,1,1.4.218c2.436.733,3.652,3.344,2.734,6.409-.885,2.947-2.866,4.243-4.848,4.243a4.777,4.777,0,0,1-1.362-.2,3.693,3.693,0,0,1-2.63-2.516L370.345,21l-1.651,5.477-1.812-.544,3.278-10.917c.388-1.3.657-2.346.9-3.32m2.994,10.439c1.514,0,2.725-1.187,3.306-3.117.605-2.02.061-4.068-1.873-4.65a2.7,2.7,0,0,0-.8-.118,3.131,3.131,0,0,0-2.654,1.556,3.04,3.04,0,0,0-.35.714l-.52,1.731a4.5,4.5,0,0,0-.142.776,2.953,2.953,0,0,0,2.1,2.97,3.413,3.413,0,0,0,.927.137M371.064,10.75a.975.975,0,0,0-.468.123.946.946,0,0,0-.449.591c-.241.965-.516,2.01-.894,3.278l-3.278,10.917a.944.944,0,0,0,.634,1.178l1.812.544a.914.914,0,0,0,.274.038.943.943,0,0,0,.9-.676l1.055-3.5a5.075,5.075,0,0,0,2.086,1.187,5.682,5.682,0,0,0,1.632.241c2.677,0,4.829-1.84,5.757-4.919,1.05-3.5-.364-6.684-3.368-7.587a5.833,5.833,0,0,0-1.674-.255,4.978,4.978,0,0,0-1.433.208.956.956,0,0,0-.672-.837l-1.646-.5a1.678,1.678,0,0,0-.27-.028Zm.9,8.339a3.218,3.218,0,0,1,.1-.572l.52-1.731a2.5,2.5,0,0,1,.246-.482,2.209,2.209,0,0,1,1.854-1.112,1.762,1.762,0,0,1,.525.076,1.854,1.854,0,0,1,1.272,1.2,3.693,3.693,0,0,1-.033,2.27c-.468,1.551-1.343,2.445-2.4,2.445a2.211,2.211,0,0,1-.658-.1,2,2,0,0,1-1.433-1.991Z" transform="translate(-192.848 -5.665)" fill="#f4cfc9"/>
    <path id="Path_520" data-name="Path 520" d="M400.646,22.086a4.961,4.961,0,0,1,1.826.364c3.193,1.277,2.918,4.423,2.2,6.22a7.178,7.178,0,0,1-.393.8l-6.873-2.743a3.373,3.373,0,0,0,2,4.735,6.944,6.944,0,0,0,2.734.577h.175l-.2,1.4c-.076,0-.161,0-.246,0a8.825,8.825,0,0,1-3.249-.7c-3.013-1.2-4.021-3.9-2.843-6.849.922-2.308,2.753-3.808,4.867-3.808m2.488,5.454c.473-1.126.691-3.075-1.31-3.874a2.659,2.659,0,0,0-1.007-.2,3.527,3.527,0,0,0-2.876,2l5.194,2.076m-.814,4.5h0m-1.674-10.9c-2.46,0-4.664,1.689-5.747,4.4a6.363,6.363,0,0,0-.151,4.787,6.041,6.041,0,0,0,3.519,3.3,9.771,9.771,0,0,0,3.6.766c.1,0,.2,0,.289,0a.945.945,0,0,0,.894-.809l.2-1.343a.829.829,0,0,0,.019-.189.946.946,0,0,0-.946-.946h-.175a6.031,6.031,0,0,1-2.384-.511,2.359,2.359,0,0,1-1.708-2.583l5.879,2.346a.9.9,0,0,0,.35.066.95.95,0,0,0,.837-.5l.043-.076a7.355,7.355,0,0,0,.393-.823,6.9,6.9,0,0,0,.411-3.85,4.827,4.827,0,0,0-3.145-3.6,5.994,5.994,0,0,0-2.176-.426Zm-1.211,3.907a2.036,2.036,0,0,1,1.381-.634,1.851,1.851,0,0,1,.657.132,1.533,1.533,0,0,1,.918.809,1.957,1.957,0,0,1,.109.913l-3.065-1.22Z" transform="translate(-207.823 -11.141)" fill="#f4cfc9"/>
    <path id="Path_521" data-name="Path 521" d="M419.773,30.856a4.315,4.315,0,0,1,1.9.473,5.265,5.265,0,0,1,2.043,1.722l-1.041,1.041a4.064,4.064,0,0,0-1.67-1.49,2.211,2.211,0,0,0-.96-.241,1.34,1.34,0,0,0-1.253.762c-.383.78.014,1.41,1.017,2.483,1.339,1.428,1.778,2.658,1.093,4.068a2.884,2.884,0,0,1-2.71,1.679,5.1,5.1,0,0,1-2.214-.572,6.024,6.024,0,0,1-2.346-1.944l1.069-1.1a5.011,5.011,0,0,0,1.935,1.793,2.728,2.728,0,0,0,1.192.312,1.421,1.421,0,0,0,1.334-.823c.4-.823.132-1.509-.913-2.6-1.4-1.438-1.75-2.767-1.2-3.9a2.936,2.936,0,0,1,2.72-1.656m0-.946A3.881,3.881,0,0,0,416.2,32.1c-.53,1.088-.724,2.838,1.372,4.976.979,1.026.856,1.277.738,1.523a.476.476,0,0,1-.487.293,1.883,1.883,0,0,1-.776-.218,4.07,4.07,0,0,1-1.537-1.424.951.951,0,0,0-.7-.454.875.875,0,0,0-.109,0,.934.934,0,0,0-.676.289l-1.069,1.1a.943.943,0,0,0-.109,1.183,6.933,6.933,0,0,0,2.72,2.27,6,6,0,0,0,2.63.667,3.823,3.823,0,0,0,3.557-2.214c1.093-2.237-.189-4-1.249-5.127-1.017-1.088-.932-1.263-.856-1.419a.408.408,0,0,1,.407-.232,1.305,1.305,0,0,1,.544.147,3.16,3.16,0,0,1,1.277,1.14.944.944,0,0,0,.7.445.837.837,0,0,0,.109,0,.93.93,0,0,0,.667-.279l1.041-1.041a.946.946,0,0,0,.123-1.187,6.2,6.2,0,0,0-2.417-2.053,5.163,5.163,0,0,0-2.318-.577Z" transform="translate(-217.486 -15.762)" fill="#f4cfc9"/>
    <path id="Path_522" data-name="Path 522" d="M444.085,42.916l1.428.87-1.022,1.8.076.047a3.5,3.5,0,0,1,2.223-.856,2.777,2.777,0,0,1,1.466.407,2.172,2.172,0,0,1,.43.341l-.941,1.542a3.158,3.158,0,0,0-.525-.4,2.389,2.389,0,0,0-1.244-.359,3.037,3.037,0,0,0-2.228,1.121,5.409,5.409,0,0,0-.539.714l-2.923,4.792-1.618-.984,3.779-6.182c.648-1.06,1.183-1.982,1.637-2.852m0-.946a.948.948,0,0,0-.255.033.96.96,0,0,0-.587.473c-.407.78-.9,1.641-1.6,2.8l-3.775,6.187a.947.947,0,0,0-.114.714.961.961,0,0,0,.426.587l1.618.984a.922.922,0,0,0,.492.137.948.948,0,0,0,.809-.454l2.923-4.792a4.829,4.829,0,0,1,.445-.591,2.122,2.122,0,0,1,1.514-.795,1.469,1.469,0,0,1,.752.218,1.97,1.97,0,0,1,.36.27.951.951,0,0,0,.657.265,1.165,1.165,0,0,0,.123-.009.94.94,0,0,0,.686-.445L449.5,46a.951.951,0,0,0-.132-1.159,3.049,3.049,0,0,0-.61-.482,3.781,3.781,0,0,0-1.958-.544c-.109,0-.222,0-.336.014a.932.932,0,0,0-.454-.861l-1.428-.87a1,1,0,0,0-.492-.132Z" transform="translate(-230.682 -22.118)" fill="#f4cfc9"/>
    <path id="Path_523" data-name="Path 523" d="M458.86,53.976a4.66,4.66,0,0,1,2.715.9c2.81,1.982,1.816,4.976.7,6.561a6.822,6.822,0,0,1-.568.691l-6.045-4.262a3.37,3.37,0,0,0,.847,5.066,6.939,6.939,0,0,0,2.7,1.235l-.525,1.31a8.506,8.506,0,0,1-3.24-1.485c-2.649-1.868-3-4.725-1.173-7.322a5.8,5.8,0,0,1,4.593-2.691m2.181,6c.719-.984,1.381-2.833-.378-4.073a2.58,2.58,0,0,0-1.518-.5,3.808,3.808,0,0,0-2.677,1.348l4.574,3.221M458.86,53.03a6.685,6.685,0,0,0-5.364,3.1,6.344,6.344,0,0,0-1.253,4.621A6.024,6.024,0,0,0,454.9,64.77a9.454,9.454,0,0,0,3.6,1.641,1.159,1.159,0,0,0,.18.019.953.953,0,0,0,.88-.6l.525-1.31a.935.935,0,0,0-.043-.795.963.963,0,0,0-.634-.482,6.014,6.014,0,0,1-2.351-1.083,2.362,2.362,0,0,1-1.064-2.9l5.175,3.647a.939.939,0,0,0,1.253-.147l.057-.066a7.625,7.625,0,0,0,.572-.7,6.945,6.945,0,0,0,1.3-3.647,4.82,4.82,0,0,0-2.223-4.233,5.641,5.641,0,0,0-3.268-1.078Zm-.837,3.666a2.252,2.252,0,0,1,1.126-.341,1.607,1.607,0,0,1,.97.326,1.534,1.534,0,0,1,.7,1,1.973,1.973,0,0,1-.1.913l-2.7-1.9Z" transform="translate(-238.301 -27.947)" fill="#f4cfc9"/>
    <path id="Path_524" data-name="Path 524" d="M477.236,68.626a5.8,5.8,0,0,1,3.689,1.428,6.4,6.4,0,0,1,1.7,2.11l-1.277.861a4.448,4.448,0,0,0-1.391-1.8,3.657,3.657,0,0,0-2.341-.908,4.056,4.056,0,0,0-3.065,1.6,3.612,3.612,0,0,0,.307,5.364A5.368,5.368,0,0,0,477,78.375l-.662,1.315a7.1,7.1,0,0,1-2.72-1.457A5,5,0,0,1,473,70.75a5.506,5.506,0,0,1,4.233-2.124m0-.946a6.9,6.9,0,0,0-6.556,7.071,6.089,6.089,0,0,0,2.337,4.224,7.98,7.98,0,0,0,3.127,1.656.956.956,0,0,0,1.041-.5l.662-1.315a.949.949,0,0,0,.024-.809.935.935,0,0,0-.61-.53,4.471,4.471,0,0,1-1.8-.913,2.678,2.678,0,0,1-.18-4.03,3.1,3.1,0,0,1,2.337-1.263,2.7,2.7,0,0,1,1.736.691,3.476,3.476,0,0,1,1.107,1.4.959.959,0,0,0,.6.568.992.992,0,0,0,.289.043.979.979,0,0,0,.53-.161l1.277-.861a.95.95,0,0,0,.336-1.168,7.214,7.214,0,0,0-1.963-2.455,6.7,6.7,0,0,0-4.29-1.651Z" transform="translate(-248.04 -35.667)" fill="#f4cfc9"/>
    <path id="Path_525" data-name="Path 525" d="M494.037,73.526a1.2,1.2,0,0,1,.814.331,1.139,1.139,0,0,1,.052,1.674,1.1,1.1,0,0,1-.837.4,1.252,1.252,0,0,1-.856-.364,1.137,1.137,0,0,1-.047-1.646,1.177,1.177,0,0,1,.875-.393m-2.71,2.729,1.4,1.3L485.58,85.29l-1.4-1.3,7.152-7.734m2.71-3.675h0a2.176,2.176,0,0,0-2.147,2.19,2.013,2.013,0,0,0,.255.951l-.175-.161a.928.928,0,0,0-.643-.251.958.958,0,0,0-.7.3l-7.152,7.729a.953.953,0,0,0-.251.681.943.943,0,0,0,.3.657l1.4,1.3a.928.928,0,0,0,.643.251.958.958,0,0,0,.7-.3l7.152-7.729a.953.953,0,0,0,.251-.681.943.943,0,0,0-.3-.657l-.208-.194a2.136,2.136,0,0,0,.9.208,2.058,2.058,0,0,0,1.542-.714,2.086,2.086,0,0,0-.113-3,2.181,2.181,0,0,0-1.457-.577Z" transform="translate(-254.662 -38.249)" fill="#f4cfc9"/>
    <path id="Path_526" data-name="Path 526" d="M495.85,87.126l1.182,1.249-1.249,1.305.028.033a4.528,4.528,0,0,1,.965-.1,4.178,4.178,0,0,1,3.094,1.414c1.755,1.845,1.509,4.721-.814,6.92a6.012,6.012,0,0,1-4.106,1.864,4.5,4.5,0,0,1-3.292-1.443,3.683,3.683,0,0,1-1.031-3.491l-.028-.033-4.153,3.94-1.3-1.372,8.273-7.847c.974-.937,1.736-1.717,2.431-2.436m-1.206,10.912a4.576,4.576,0,0,0,3.037-1.433c1.532-1.452,2.076-3.5.686-4.967a2.91,2.91,0,0,0-2.124-.885,3.227,3.227,0,0,0-1.589.421,3.154,3.154,0,0,0-.657.445l-1.31,1.244a4.383,4.383,0,0,0-.506.6,2.96,2.96,0,0,0,.35,3.628,2.861,2.861,0,0,0,2.114.946M495.85,86.18a.952.952,0,0,0-.681.289c-.724.752-1.452,1.5-2.4,2.4l-8.273,7.847a.948.948,0,0,0-.033,1.339l1.3,1.372a.953.953,0,0,0,.662.293h.024a.965.965,0,0,0,.653-.26l2.658-2.521a5.151,5.151,0,0,0,1.22,2.067,5.443,5.443,0,0,0,3.978,1.736,6.97,6.97,0,0,0,4.758-2.124,6.8,6.8,0,0,0,2.223-4.177,5.045,5.045,0,0,0-1.376-4.082,5.38,5.38,0,0,0-2.673-1.585.956.956,0,0,0-.165-1.064l-1.183-1.249a.99.99,0,0,0-.691-.284Zm-2.89,7.809a3.434,3.434,0,0,1,.374-.445l1.31-1.244a2.3,2.3,0,0,1,.454-.3,2.349,2.349,0,0,1,1.145-.307,1.981,1.981,0,0,1,1.433.591c1.041,1.1.421,2.616-.648,3.633a3.671,3.671,0,0,1-2.384,1.173,1.944,1.944,0,0,1-1.433-.657,2,2,0,0,1-.251-2.445Z" transform="translate(-255.174 -45.416)" fill="#f4cfc9"/>
    <path id="Path_527" data-name="Path 527" d="M517.894,110.216a4.569,4.569,0,0,1,3.652,1.807c2.138,2.691.341,5.288-1.173,6.494a7.917,7.917,0,0,1-.738.506l-4.607-5.79a3.374,3.374,0,0,0-.61,5.1,6.911,6.911,0,0,0,2.242,1.944l-.87,1.107a8.5,8.5,0,0,1-2.691-2.337c-2.02-2.535-1.556-5.378.932-7.36a6.3,6.3,0,0,1,3.865-1.476m1.7,6.556c.965-.743,2.124-2.327.781-4.016a2.6,2.6,0,0,0-2.114-1.012,4.21,4.21,0,0,0-2.147.653l3.481,4.375m-1.7-7.5a7.262,7.262,0,0,0-4.456,1.684,6.344,6.344,0,0,0-2.5,4.082,6.032,6.032,0,0,0,1.419,4.607,9.478,9.478,0,0,0,3,2.587.94.94,0,0,0,1.173-.26l.87-1.107a.949.949,0,0,0-.293-1.414,6.017,6.017,0,0,1-1.954-1.7,2.359,2.359,0,0,1-.2-3.089l3.94,4.952a.943.943,0,0,0,.743.355.923.923,0,0,0,.5-.147l.071-.043a6.8,6.8,0,0,0,.752-.52c2.3-1.831,3.6-4.957,1.324-7.824a5.5,5.5,0,0,0-4.385-2.166Zm-.27,3.5a2.861,2.861,0,0,1,.639-.085,1.66,1.66,0,0,1,1.376.657,1.529,1.529,0,0,1,.393,1.159,1.91,1.91,0,0,1-.359.847l-2.048-2.578Z" transform="translate(-269.238 -57.585)" fill="#f4cfc9"/>
    <path id="Path_528" data-name="Path 528" d="M530.532,128.076a3.65,3.65,0,0,1,2.956,1.774,5.3,5.3,0,0,1,.922,2.507l-1.419.388a4.146,4.146,0,0,0-.709-2.124,1.775,1.775,0,0,0-1.428-.884,1.323,1.323,0,0,0-.752.236c-.719.492-.686,1.235-.345,2.658.454,1.9.227,3.188-1.064,4.073a2.945,2.945,0,0,1-1.674.539,3.977,3.977,0,0,1-3.155-2.015,5.956,5.956,0,0,1-1.074-2.847l1.476-.426a5.05,5.05,0,0,0,.795,2.516,2.055,2.055,0,0,0,1.627,1.069,1.452,1.452,0,0,0,.818-.265c.757-.516.861-1.249.5-2.71-.511-1.944-.151-3.268.889-3.983a2.955,2.955,0,0,1,1.641-.506m0-.946a3.856,3.856,0,0,0-2.176.681c-1,.681-2.034,2.1-1.272,5,.345,1.376.113,1.533-.114,1.689a.517.517,0,0,1-.288.1c-.251,0-.558-.241-.847-.657a4.063,4.063,0,0,1-.629-2,.944.944,0,0,0-.383-.743.933.933,0,0,0-.563-.184,1.024,1.024,0,0,0-.265.038l-1.476.426a.951.951,0,0,0-.681.974,7.01,7.01,0,0,0,1.239,3.32,4.881,4.881,0,0,0,3.935,2.427,3.93,3.93,0,0,0,2.2-.7c2.053-1.4,1.812-3.566,1.452-5.075-.345-1.447-.185-1.561-.043-1.656a.385.385,0,0,1,.218-.071.915.915,0,0,1,.648.473,3.184,3.184,0,0,1,.549,1.622.944.944,0,0,0,.383.728.962.962,0,0,0,.558.184.89.89,0,0,0,.251-.033l1.419-.388a.95.95,0,0,0,.7-.974,6.207,6.207,0,0,0-1.083-2.98,4.555,4.555,0,0,0-3.732-2.2Z" transform="translate(-275.008 -66.997)" fill="#f4cfc9"/>
    <path id="Path_529" data-name="Path 529" d="M546.656,151.1l.809,1.466-1.779,1.06.043.076a3.979,3.979,0,0,1,.7-.066,3.044,3.044,0,0,1,2.729,1.5,2.211,2.211,0,0,1,.208.506l-1.58.875a2.749,2.749,0,0,0-.26-.6,2.441,2.441,0,0,0-2.228-1.258,3.7,3.7,0,0,0-1.168.2,5.6,5.6,0,0,0-.823.355l-4.915,2.715-.918-1.656,6.338-3.5c1.093-.6,2.015-1.135,2.843-1.665m0-.946a.935.935,0,0,0-.511.151c-.743.478-1.6.984-2.781,1.637l-6.338,3.5a.942.942,0,0,0-.369,1.287l.918,1.656a.946.946,0,0,0,.568.449.989.989,0,0,0,.26.038.922.922,0,0,0,.459-.118l4.914-2.715a4.7,4.7,0,0,1,.681-.293,2.732,2.732,0,0,1,.851-.147,1.512,1.512,0,0,1,1.4.771,2.278,2.278,0,0,1,.18.412.948.948,0,0,0,.908.676.934.934,0,0,0,.459-.118l1.58-.875a.942.942,0,0,0,.454-1.069,3.061,3.061,0,0,0-.293-.724,3.793,3.793,0,0,0-1.727-1.6.939.939,0,0,0,.033-.97l-.809-1.466a.941.941,0,0,0-.6-.459,1.148,1.148,0,0,0-.241-.028Z" transform="translate(-282.755 -79.128)" fill="#f4cfc9"/>
    <path id="Path_530" data-name="Path 530" d="M552.617,166.9a4.624,4.624,0,0,1,4.352,2.743c1.462,3.112-.889,5.227-2.639,6.05a7.836,7.836,0,0,1-.837.322l-3.146-6.7a3.374,3.374,0,0,0-1.774,4.825,6.913,6.913,0,0,0,1.731,2.408l-1.1.88a8.554,8.554,0,0,1-2.081-2.895c-1.376-2.933-.27-5.6,2.606-6.944a6.731,6.731,0,0,1,2.89-.691m1.358,6.911c1.112-.5,2.6-1.774,1.689-3.727a2.759,2.759,0,0,0-2.658-1.57,4.582,4.582,0,0,0-1.409.232l2.379,5.066m-1.358-7.857a7.837,7.837,0,0,0-3.292.771,6.355,6.355,0,0,0-3.377,3.391,6.032,6.032,0,0,0,.317,4.81,9.412,9.412,0,0,0,2.322,3.212.943.943,0,0,0,.615.227.931.931,0,0,0,.591-.208l1.1-.88a.939.939,0,0,0,.355-.714.959.959,0,0,0-.312-.733,6.025,6.025,0,0,1-1.509-2.1,2.361,2.361,0,0,1,.516-3.051l2.691,5.733a.944.944,0,0,0,.856.544.849.849,0,0,0,.3-.052l.08-.028a7.563,7.563,0,0,0,.851-.331c2.663-1.249,4.65-3.992,3.1-7.308a5.551,5.551,0,0,0-5.208-3.278Zm.364,3.51h.028a1.815,1.815,0,0,1,1.8,1.026,1.517,1.517,0,0,1,.114,1.216,1.911,1.911,0,0,1-.544.738l-1.4-2.98Z" transform="translate(-287.524 -87.455)" fill="#f4cfc9"/>
    <path id="Path_531" data-name="Path 531" d="M561.329,188.556a5.331,5.331,0,0,1,5.037,3.737,6.405,6.405,0,0,1,.426,2.677l-1.537.114a4.463,4.463,0,0,0-.317-2.252,3.459,3.459,0,0,0-3.354-2.4,4.828,4.828,0,0,0-1.689.322,3.611,3.611,0,0,0-2.393,4.81,5.447,5.447,0,0,0,1.32,2.015l-1.23.814a7.037,7.037,0,0,1-1.637-2.616,5,5,0,0,1,3.179-6.8,6.175,6.175,0,0,1,2.195-.421m0-.946a7.151,7.151,0,0,0-2.526.478,5.925,5.925,0,0,0-3.732,8.022,7.945,7.945,0,0,0,1.892,2.985.943.943,0,0,0,1.149.085l1.23-.814a.946.946,0,0,0,.156-1.452,4.457,4.457,0,0,1-1.107-1.689,2.677,2.677,0,0,1,1.845-3.59,3.827,3.827,0,0,1,1.353-.26,2.5,2.5,0,0,1,2.469,1.788,3.48,3.48,0,0,1,.265,1.769.947.947,0,0,0,.932,1.1.359.359,0,0,0,.071,0l1.537-.114a.945.945,0,0,0,.87-.847,7.339,7.339,0,0,0-.483-3.108,6.257,6.257,0,0,0-5.922-4.347Z" transform="translate(-292.277 -98.87)" fill="#f4cfc9"/>
    <path id="Path_532" data-name="Path 532" d="M573.511,204.6a1.159,1.159,0,0,1,1.116.842,1.136,1.136,0,0,1-.79,1.481,1.168,1.168,0,0,1-.393.071,1.152,1.152,0,0,1-1.093-.88,1.136,1.136,0,0,1,.776-1.452,1.2,1.2,0,0,1,.383-.061m-3.136,1.178.572,1.826-10.047,3.16-.572-1.826,10.047-3.16m3.136-2.124a2.157,2.157,0,0,0-.667.1,2.093,2.093,0,0,0-1.495,1.963l-.071-.227a.951.951,0,0,0-.9-.662.983.983,0,0,0-.284.043l-10.047,3.16a.94.94,0,0,0-.615,1.183l.572,1.826a.951.951,0,0,0,.9.662.983.983,0,0,0,.284-.043l10.047-3.16a.94.94,0,0,0,.615-1.182l-.085-.27a2.034,2.034,0,0,0,2.365.771,2.162,2.162,0,0,0,1.244-1,2.162,2.162,0,0,0-1.864-3.169Z" transform="translate(-294.796 -107.323)" fill="#f4cfc9"/>
    <path id="Path_533" data-name="Path 533" d="M569,218.126l.407,1.67-1.736.511.009.043a4.144,4.144,0,0,1,2.871,3.155c.6,2.474-1.041,4.844-4.148,5.6a7.741,7.741,0,0,1-1.84.232,4.649,4.649,0,0,1-4.787-3.548,3.681,3.681,0,0,1,.842-3.538l-.009-.043-5.558,1.353-.449-1.84,11.078-2.691c1.31-.322,2.36-.624,3.321-.9m-4.588,9.318a6.24,6.24,0,0,0,1.457-.184c2.048-.5,3.543-2,3.065-3.969a3.053,3.053,0,0,0-2.989-2.251c-.057,0-.113,0-.17,0a2.7,2.7,0,0,0-.62.061l-1.755.426a4.257,4.257,0,0,0-.743.27,2.959,2.959,0,0,0-1.5,3.32,3.062,3.062,0,0,0,3.254,2.332M569,217.18a1.023,1.023,0,0,0-.265.038c-1,.289-2.006.577-3.278.885l-11.078,2.691a.961.961,0,0,0-.587.426.947.947,0,0,0-.113.714l.449,1.84a.948.948,0,0,0,.918.724.869.869,0,0,0,.222-.028l3.557-.866a5.146,5.146,0,0,0,.028,2.4,5.619,5.619,0,0,0,5.7,4.271,8.894,8.894,0,0,0,2.062-.26,6.809,6.809,0,0,0,4.006-2.516,5.061,5.061,0,0,0,.837-4.224,5.325,5.325,0,0,0-1.528-2.706.941.941,0,0,0,.378-1l-.407-1.67a.96.96,0,0,0-.445-.6.951.951,0,0,0-.464-.118Zm-5.917,5.458a3.014,3.014,0,0,1,.544-.2l1.755-.426a1.721,1.721,0,0,1,.4-.033h.147a2.123,2.123,0,0,1,2.1,1.528,1.852,1.852,0,0,1-.393,1.708,3.732,3.732,0,0,1-1.977,1.121,5.366,5.366,0,0,1-1.234.161,2.149,2.149,0,0,1-2.332-1.608,2,2,0,0,1,1-2.251Z" transform="translate(-291.777 -114.453)" fill="#f4cfc9"/>
    <path id="Path_534" data-name="Path 534" d="M575.621,245c2.644,0,4.81,1.462,5.213,4.12.516,3.4-2.337,4.758-4.252,5.047a8.126,8.126,0,0,1-.894.071l-1.107-7.317a3.377,3.377,0,0,0-3.075,4.12,6.894,6.894,0,0,0,.974,2.8l-1.305.53A8.575,8.575,0,0,1,570,251c-.487-3.207,1.334-5.44,4.475-5.917a7.963,7.963,0,0,1,1.145-.085m1.159,7.265c1.206-.161,3-.96,2.677-3.093a3.127,3.127,0,0,0-3.363-2.441c-.052,0-.1,0-.156,0l.842,5.529m-1.159-8.211a8.56,8.56,0,0,0-1.287.1c-3.756.572-5.823,3.316-5.264,7a9.463,9.463,0,0,0,1.31,3.737.942.942,0,0,0,1.149.36l1.305-.53a.934.934,0,0,0,.544-.582.947.947,0,0,0-.095-.79,5.985,5.985,0,0,1-.847-2.445,2.366,2.366,0,0,1,1.362-2.781l.951,6.258a.946.946,0,0,0,.937.8h.038l.085,0a7.391,7.391,0,0,0,.913-.076,6.93,6.93,0,0,0,3.529-1.589,4.831,4.831,0,0,0,1.518-4.536c-.454-2.985-2.867-4.919-6.149-4.919Zm1.935,7.015-.492-3.259a1.847,1.847,0,0,1,1.462,1.5,1.518,1.518,0,0,1-.237,1.2,1.944,1.944,0,0,1-.733.553Z" transform="translate(-299.852 -128.613)" fill="#f4cfc9"/>
    <path id="Path_535" data-name="Path 535" d="M579.995,268.466c1.594,0,2.956,1.244,3.122,3.391a5.305,5.305,0,0,1-.449,2.63l-1.424-.369a4.112,4.112,0,0,0,.44-2.195c-.085-1.074-.724-1.651-1.457-1.651a.807.807,0,0,0-.109,0c-.866.066-1.211.728-1.622,2.133-.553,1.878-1.391,2.881-2.956,3-.09,0-.18.009-.265.009-1.712,0-3-1.32-3.183-3.694a6,6,0,0,1,.487-3.008l1.49.364a4.992,4.992,0,0,0-.563,2.578c.1,1.32.78,1.925,1.589,1.925a1.278,1.278,0,0,0,.133,0c.913-.071,1.367-.653,1.778-2.1.525-1.939,1.5-2.909,2.758-3.008.071,0,.151,0,.232,0m0-.946q-.156,0-.312.014c-1.206.095-2.814.814-3.595,3.7-.388,1.362-.667,1.386-.941,1.4h-.057c-.492,0-.615-.657-.648-1.05a4.09,4.09,0,0,1,.449-2.048.946.946,0,0,0-.605-1.376l-1.49-.364a.934.934,0,0,0-.227-.028.946.946,0,0,0-.851.53,7,7,0,0,0-.582,3.5c.213,2.772,1.835,4.565,4.125,4.565q.17,0,.341-.014c2.483-.194,3.349-2.19,3.789-3.675.421-1.428.615-1.443.79-1.457h.038c.421,0,.5.6.516.78a3.168,3.168,0,0,1-.336,1.679.932.932,0,0,0-.028.823.949.949,0,0,0,.629.534l1.424.369a1.037,1.037,0,0,0,.236.028.939.939,0,0,0,.847-.53,6.216,6.216,0,0,0,.544-3.122c-.185-2.507-1.854-4.262-4.054-4.262Z" transform="translate(-300.977 -140.982)" fill="#f4cfc9"/>
    <path id="Path_536" data-name="Path 536" d="M573.484,297.83l7.246.118c.445.009.861.009,1.263.009.724,0,1.391-.014,2.02-.047l-.028,1.674-2.067.033v.085a3.155,3.155,0,0,1,2.256,2.952,2.1,2.1,0,0,1-.076.544l-1.807-.028a2.878,2.878,0,0,0,.076-.653,2.683,2.683,0,0,0-2.417-2.606,5.359,5.359,0,0,0-.889-.1l-5.615-.09.038-1.892m10.529.085h0m-10.529-1.031a.945.945,0,0,0-.946.927l-.028,1.892a.946.946,0,0,0,.932.96l5.615.09a4.446,4.446,0,0,1,.733.085c.378.076,1.66.426,1.641,1.66a1.982,1.982,0,0,1-.052.445.94.94,0,0,0,.9,1.164l1.807.028h.014a.947.947,0,0,0,.913-.7,2.975,2.975,0,0,0,.1-.771,3.779,3.779,0,0,0-.7-2.247.946.946,0,0,0,.511-.828l.028-1.627V297.9a.946.946,0,0,0-.946-.946h-.052c-.582.028-1.225.043-1.968.043-.4,0-.814,0-1.249-.009l-7.246-.118c0,.014-.009.014-.014.014Z" transform="translate(-301.713 -156.449)" fill="#f4cfc9"/>
    <path id="Path_537" data-name="Path 537" d="M577.109,311.146c.194,0,.393.009.6.024,3.164.255,5.511,2.322,5.265,5.378-.251,3.131-2.857,3.959-4.777,3.959-.18,0-.355-.009-.52-.019a7.42,7.42,0,0,1-.885-.137l.6-7.374c-.128-.009-.246-.014-.369-.014a3.331,3.331,0,0,0-3.566,3.32,6.958,6.958,0,0,0,.307,2.952l-1.391.218a8.456,8.456,0,0,1-.369-3.543,4.82,4.82,0,0,1,5.113-4.763m1.6,7.559a2.616,2.616,0,0,0,2.9-2.417c.156-1.93-1.556-2.918-2.866-3.179l-.449,5.572a3.852,3.852,0,0,0,.411.024m-1.6-8.5a5.785,5.785,0,0,0-6.054,5.629,9.436,9.436,0,0,0,.421,3.94.952.952,0,0,0,.889.629c.047,0,.095,0,.147-.009l1.391-.218a.951.951,0,0,0,.662-.44.929.929,0,0,0,.09-.79,6,6,0,0,1-.265-2.578,2.367,2.367,0,0,1,1.963-2.393l-.506,6.31a.941.941,0,0,0,.762,1l.085.014a6.67,6.67,0,0,0,.9.132c.194.014.4.024.6.024,2.578,0,5.43-1.268,5.719-4.829.279-3.453-2.242-6.083-6.13-6.4-.227-.014-.454-.024-.672-.024Zm2.218,7.507.265-3.292a1.836,1.836,0,0,1,1.078,1.8,1.513,1.513,0,0,1-1.343,1.495Z" transform="translate(-300.924 -163.474)" fill="#f4cfc9"/>
    <path id="Path_538" data-name="Path 538" d="M574.142,334.236a6.6,6.6,0,0,1,1.083.09,5.347,5.347,0,0,1,4.631,6.466,6.409,6.409,0,0,1-.956,2.535l-1.391-.662a4.454,4.454,0,0,0,.842-2.114c.378-2.384-1.178-3.954-3.349-4.3a5.432,5.432,0,0,0-.814-.066,3.506,3.506,0,0,0-3.647,3.056,5.447,5.447,0,0,0,.147,2.4l-1.471.095a7.04,7.04,0,0,1-.128-3.084,4.913,4.913,0,0,1,5.052-4.418m0-.946a5.881,5.881,0,0,0-5.983,5.217,7.91,7.91,0,0,0,.165,3.533.942.942,0,0,0,.9.643h.062l1.471-.095a.937.937,0,0,0,.7-.393.947.947,0,0,0,.147-.795,4.516,4.516,0,0,1-.128-2.015,2.56,2.56,0,0,1,2.715-2.261,4.093,4.093,0,0,1,.667.057c1.447.232,2.885,1.2,2.564,3.216a3.5,3.5,0,0,1-.648,1.67.947.947,0,0,0,.331,1.447l1.391.662a.953.953,0,0,0,1.178-.307,7.3,7.3,0,0,0,1.121-2.937,6.287,6.287,0,0,0-5.416-7.549,8.655,8.655,0,0,0-1.239-.095Z" transform="translate(-299.358 -175.642)" fill="#f4cfc9"/>
    <path id="Path_539" data-name="Path 539" d="M567.226,354.146l10.293,2.237-.407,1.873-10.293-2.237.407-1.873m12.96,2.6a1.385,1.385,0,0,1,.274.028,1.169,1.169,0,0,1,.918,1.424,1.115,1.115,0,0,1-1.121.927,1.338,1.338,0,0,1-.3-.033,1.188,1.188,0,0,1,.227-2.346m-12.96-3.548a.946.946,0,0,0-.922.747l-.407,1.873a.949.949,0,0,0,.724,1.126l10.293,2.237a.946.946,0,0,0,.2.024.946.946,0,0,0,.922-.747l.061-.274a2.125,2.125,0,0,0,.336.97,2.051,2.051,0,0,0,1.339.875,2.393,2.393,0,0,0,.482.052,2.068,2.068,0,0,0,2.048-1.67,2.114,2.114,0,0,0-1.641-2.549,2.3,2.3,0,0,0-.473-.052h0a2.083,2.083,0,0,0-1.8,1.017l.052-.237a.949.949,0,0,0-.724-1.126l-10.293-2.237a.7.7,0,0,0-.2-.028Z" transform="translate(-298.216 -186.135)" fill="#f4cfc9"/>
    <path id="Path_540" data-name="Path 540" d="M556.212,361.676l10.955,3.15c1.3.374,2.356.629,3.33.866l-.473,1.651-1.76-.416-.014.043a4.146,4.146,0,0,1,.932,4.162,4.374,4.374,0,0,1-4.451,3.093,6.9,6.9,0,0,1-1.925-.284c-3.637-1.045-4.8-3.779-4.115-6.163a3.685,3.685,0,0,1,2.483-2.658l.014-.043-5.5-1.58.525-1.821m8.524,10.619a2.967,2.967,0,0,0,1.665-5.581,3.138,3.138,0,0,0-.719-.341l-1.736-.5a4.041,4.041,0,0,0-.776-.132h-.076a2.947,2.947,0,0,0-2.871,2.143c-.558,1.944.7,3.529,3.027,4.2a5.662,5.662,0,0,0,1.485.213m-8.524-11.565a.944.944,0,0,0-.908.686l-.525,1.821a.951.951,0,0,0,.08.719.932.932,0,0,0,.568.449l3.519,1.012a5.146,5.146,0,0,0-1.164,2.1c-.761,2.654.4,6.078,4.763,7.332a7.945,7.945,0,0,0,2.19.322,5.357,5.357,0,0,0,5.373-6.882.955.955,0,0,0,.828-.681l.473-1.651a.945.945,0,0,0-.686-1.183c-1.017-.246-2.034-.5-3.287-.856l-10.955-3.15a.926.926,0,0,0-.27-.038Zm8.524,10.619a4.545,4.545,0,0,1-1.225-.18c-.7-.2-2.956-1.017-2.379-3.027a2.018,2.018,0,0,1,1.963-1.457h.019a3.162,3.162,0,0,1,.568.095l1.736.5a2.449,2.449,0,0,1,.487.241,2.029,2.029,0,0,1-1.168,3.831Z" transform="translate(-292.349 -190.103)" fill="#f4cfc9"/>
    <path id="Path_541" data-name="Path 541" d="M558.2,389.986a6.344,6.344,0,0,1,2.275.454c2.966,1.145,4.626,3.789,3.519,6.651a3.95,3.95,0,0,1-3.921,2.71,6.467,6.467,0,0,1-2.27-.435,7.679,7.679,0,0,1-.809-.383l2.663-6.9a4.566,4.566,0,0,0-1.585-.307,3.319,3.319,0,0,0-3.126,2.36,6.991,6.991,0,0,0-.544,2.918l-1.4-.189a8.488,8.488,0,0,1,.653-3.5,4.781,4.781,0,0,1,4.541-3.372m2.2,8.131a2.4,2.4,0,0,0,2.374-1.66c.7-1.807-.662-3.24-1.845-3.86l-2.01,5.217a3.983,3.983,0,0,0,1.481.3m-2.2-9.077a5.7,5.7,0,0,0-5.425,3.978,9.434,9.434,0,0,0-.714,3.9.944.944,0,0,0,.818.885l1.4.189a1.158,1.158,0,0,0,.128.009.951.951,0,0,0,.946-.979,6.038,6.038,0,0,1,.478-2.545,2.335,2.335,0,0,1,2.559-1.736l-2.28,5.908a.946.946,0,0,0,.449,1.182l.076.043a6.6,6.6,0,0,0,.828.383,7.428,7.428,0,0,0,2.611.5,4.881,4.881,0,0,0,4.806-3.316,5.544,5.544,0,0,0-.293-4.773,7.243,7.243,0,0,0-3.775-3.1,7.108,7.108,0,0,0-2.606-.52Zm1.982,8.121,1.187-3.075a1.837,1.837,0,0,1,.525,2.029,1.463,1.463,0,0,1-1.49,1.055c-.076,0-.151,0-.222-.009Z" transform="translate(-290.929 -205.022)" fill="#f4cfc9"/>
    <path id="Path_542" data-name="Path 542" d="M548.7,408.486l1.112,1.055a5.066,5.066,0,0,0-1.769,1.953c-.6,1.258-.246,2.147.539,2.516a1.561,1.561,0,0,0,.686.17,2.941,2.941,0,0,0,1.9-1.112,4.181,4.181,0,0,1,2.838-1.48,2.446,2.446,0,0,1,1.045.237c1.533.724,2.209,2.559,1.239,4.607a5.23,5.23,0,0,1-1.7,2.062l-1.055-1.026a4.058,4.058,0,0,0,1.471-1.689,1.539,1.539,0,0,0-.544-2.209,1.329,1.329,0,0,0-.563-.137c-.558,0-1.112.416-1.906,1.183a4.183,4.183,0,0,1-2.791,1.443,2.9,2.9,0,0,1-1.263-.307c-1.67-.79-2.237-2.649-1.168-4.91a6.133,6.133,0,0,1,1.925-2.356m0-.946a.912.912,0,0,0-.53.165,6.982,6.982,0,0,0-2.237,2.743c-1.249,2.639-.6,5.118,1.618,6.168a3.853,3.853,0,0,0,1.665.4,5.012,5.012,0,0,0,3.443-1.708c.237-.227.956-.918,1.254-.918a.355.355,0,0,1,.156.047c.412.194.175.776.095.946a3.125,3.125,0,0,1-1.126,1.291.95.95,0,0,0-.435.7.963.963,0,0,0,.279.776l1.055,1.026a.95.95,0,0,0,1.192.109,6.249,6.249,0,0,0,2.025-2.441,4.835,4.835,0,0,0,.369-3.472,3.828,3.828,0,0,0-2.062-2.393,3.389,3.389,0,0,0-1.447-.331,5.07,5.07,0,0,0-3.51,1.76c-.563.549-.979.832-1.235.832a.651.651,0,0,1-.279-.076.452.452,0,0,1-.279-.312,1.434,1.434,0,0,1,.189-.946,4.083,4.083,0,0,1,1.4-1.552.935.935,0,0,0,.445-.709.954.954,0,0,0-.289-.785l-1.112-1.055a.905.905,0,0,0-.648-.265Z" transform="translate(-287.374 -214.772)" fill="#f4cfc9"/>
    <path id="Path_543" data-name="Path 543" d="M536.352,433.7l6.229,3.7c1.064.634,2,1.159,2.871,1.6l-.856,1.443-1.812-1-.043.076a3.16,3.16,0,0,1,.492,3.685,1.922,1.922,0,0,1-.336.435l-1.552-.922a2.8,2.8,0,0,0,.388-.53,2.683,2.683,0,0,0-.8-3.462,5.226,5.226,0,0,0-.724-.53l-4.825-2.866.97-1.632m0-.946a.942.942,0,0,0-.814.464l-.965,1.627a.947.947,0,0,0,.331,1.3L539.729,439a4.855,4.855,0,0,1,.6.44,1.822,1.822,0,0,1,.6,2.256,2.2,2.2,0,0,1-.265.364.947.947,0,0,0,.208,1.462l1.551.922a.947.947,0,0,0,1.154-.147,3.087,3.087,0,0,0,.478-.62,3.782,3.782,0,0,0,.506-2.3h.043a.944.944,0,0,0,.814-.464l.856-1.443a.948.948,0,0,0-.388-1.329c-.785-.4-1.656-.885-2.814-1.575l-6.23-3.7a1.11,1.11,0,0,0-.487-.123Z" transform="translate(-281.651 -228.057)" fill="#f4cfc9"/>
    <path id="Path_544" data-name="Path 544" d="M526.995,448.186a5.75,5.75,0,0,1,3.235,1.1c2.62,1.8,3.623,4.758,1.883,7.289a3.9,3.9,0,0,1-3.325,1.864,5.923,5.923,0,0,1-3.226-1.088,8.079,8.079,0,0,1-.7-.558l4.191-6.1a4.039,4.039,0,0,0-2.232-.757,3.468,3.468,0,0,0-2.829,1.665,6.954,6.954,0,0,0-1.2,2.71l-1.315-.506a8.541,8.541,0,0,1,1.447-3.259,4.9,4.9,0,0,1,4.073-2.365m2.048,8.632a2.385,2.385,0,0,0,2.024-1.145c1.1-1.594.1-3.306-.9-4.181L527,456.1a3.736,3.736,0,0,0,2.043.714m-2.048-9.578a5.861,5.861,0,0,0-4.853,2.777,9.47,9.47,0,0,0-1.6,3.628.946.946,0,0,0,.591,1.05l1.315.506a.942.942,0,0,0,.341.061.917.917,0,0,0,.454-.118.943.943,0,0,0,.473-.643,6.024,6.024,0,0,1,1.055-2.365,2.56,2.56,0,0,1,2.048-1.254,2.534,2.534,0,0,1,.847.156l-3.585,5.217a.941.941,0,0,0,.161,1.249l.062.052a8.393,8.393,0,0,0,.719.572,6.976,6.976,0,0,0,3.765,1.253,4.847,4.847,0,0,0,4.106-2.275c1.963-2.857,1.088-6.4-2.128-8.6a6.763,6.763,0,0,0-3.77-1.263Zm1.391,8.519,1.864-2.715a1.833,1.833,0,0,1,.038,2.1,1.456,1.456,0,0,1-1.244.738,2.274,2.274,0,0,1-.657-.118Z" transform="translate(-274.319 -235.693)" fill="#f4cfc9"/>
    <path id="Path_545" data-name="Path 545" d="M513.308,466.836a5.609,5.609,0,0,1,3.51,1.353,5.349,5.349,0,0,1,.795,7.913,6.384,6.384,0,0,1-2.091,1.722l-.88-1.268a4.438,4.438,0,0,0,1.783-1.41c1.518-1.878.951-4.016-.762-5.4a4.181,4.181,0,0,0-2.611-1.012,3.511,3.511,0,0,0-2.748,1.381,5.421,5.421,0,0,0-1.069,2.157l-1.32-.648a7.066,7.066,0,0,1,1.429-2.734,5.061,5.061,0,0,1,3.964-2.058m0-.946h0a6.038,6.038,0,0,0-4.7,2.408,7.872,7.872,0,0,0-1.618,3.145.943.943,0,0,0,.511,1.036l1.32.648a.945.945,0,0,0,.8.009.96.96,0,0,0,.525-.615,4.559,4.559,0,0,1,.894-1.812,2.58,2.58,0,0,1,2.015-1.026,3.263,3.263,0,0,1,2.015.8c1.14.922,1.9,2.474.62,4.063a3.542,3.542,0,0,1-1.391,1.126.944.944,0,0,0-.435,1.419l.88,1.268a.952.952,0,0,0,.78.407.962.962,0,0,0,.393-.085,7.33,7.33,0,0,0,2.436-1.991,6.286,6.286,0,0,0-.937-9.243,6.6,6.6,0,0,0-4.11-1.556Z" transform="translate(-267.174 -245.522)" fill="#f4cfc9"/>
    <path id="Path_546" data-name="Path 546" d="M502.919,479.576l7.814,7.062-1.282,1.419L501.637,481l1.282-1.419m9.37,8.547a1.2,1.2,0,0,1,.8.317,1.163,1.163,0,0,1,.085,1.689,1.143,1.143,0,0,1-.856.4,1.207,1.207,0,0,1-.818-.336,1.134,1.134,0,0,1-.057-1.693,1.159,1.159,0,0,1,.847-.378m-9.37-9.493h-.047a.934.934,0,0,0-.653.312l-1.282,1.419A.943.943,0,0,0,501,481.7l7.814,7.062a.959.959,0,0,0,.634.246h.047a.933.933,0,0,0,.653-.312l.189-.208a2.082,2.082,0,0,0-.189,1.007,2.039,2.039,0,0,0,.728,1.424,2.162,2.162,0,0,0,1.443.568,2.152,2.152,0,0,0,1.409-3.742,2.139,2.139,0,0,0-1.433-.563h0a2.034,2.034,0,0,0-1.012.265l.156-.175a.943.943,0,0,0-.066-1.334l-7.814-7.062a1.023,1.023,0,0,0-.643-.241Z" transform="translate(-263.866 -252.236)" fill="#f4cfc9"/>
    <path id="Path_547" data-name="Path 547" d="M488.6,480.7l7.942,8.178c.941.97,1.731,1.717,2.46,2.408l-1.234,1.2-1.32-1.234-.033.028a4.138,4.138,0,0,1-1.263,4.073,4.08,4.08,0,0,1-2.89,1.178,5.739,5.739,0,0,1-4.039-1.911c-2.639-2.715-2.285-5.667-.506-7.393a3.907,3.907,0,0,1,2.687-1.173,3.237,3.237,0,0,1,.795.1l.033-.028-3.987-4.106L488.6,480.7m3.931,13.977a2.788,2.788,0,0,0,1.977-.823,3.059,3.059,0,0,0,.426-3.718,3,3,0,0,0-.454-.653l-1.258-1.3a4.382,4.382,0,0,0-.61-.5,3.031,3.031,0,0,0-1.57-.445,2.929,2.929,0,0,0-2.048.837c-1.452,1.41-1.145,3.415.539,5.146a4.372,4.372,0,0,0,3,1.452M488.6,479.75a.955.955,0,0,0-.657.265l-1.358,1.32a.948.948,0,0,0-.024,1.339l2.55,2.625a5.121,5.121,0,0,0-2.053,1.244,5.444,5.444,0,0,0-1.689,4.021,6.954,6.954,0,0,0,2.176,4.711,6.662,6.662,0,0,0,4.721,2.2,5,5,0,0,0,3.547-1.447,5.3,5.3,0,0,0,1.556-2.691.968.968,0,0,0,.4.085.947.947,0,0,0,.658-.265l1.235-1.2a.955.955,0,0,0,.288-.686.927.927,0,0,0-.3-.681c-.757-.714-1.514-1.438-2.426-2.379l-7.942-8.178a.944.944,0,0,0-.681-.284Zm3.935,13.977a3.428,3.428,0,0,1-2.318-1.164c-.511-.525-2.058-2.356-.558-3.808a1.982,1.982,0,0,1,1.391-.572,2.107,2.107,0,0,1,1.055.289,3.459,3.459,0,0,1,.449.369l1.258,1.3a2.406,2.406,0,0,1,.3.449,2.117,2.117,0,0,1-.255,2.583,1.864,1.864,0,0,1-1.324.558Z" transform="translate(-255.79 -252.826)" fill="#f4cfc9"/>
    <path id="Path_548" data-name="Path 548" d="M472.213,507.536a5.242,5.242,0,0,1,4.035,2.147c2.006,2.464,2.138,5.586-.241,7.521a4.088,4.088,0,0,1-2.62,1.012,5.364,5.364,0,0,1-3.888-2.11,6.821,6.821,0,0,1-.511-.733l5.733-4.673a3.618,3.618,0,0,0-2.762-1.476,3.762,3.762,0,0,0-2.346.922,6.932,6.932,0,0,0-1.916,2.261l-1.121-.856a8.527,8.527,0,0,1,2.3-2.72,5.34,5.34,0,0,1,3.335-1.3m1.438,9.138a2.5,2.5,0,0,0,1.608-.629c1.5-1.225,1.031-3.141.312-4.266l-4.333,3.533a3.29,3.29,0,0,0,2.412,1.362m-1.438-10.084a6.258,6.258,0,0,0-3.931,1.514,9.514,9.514,0,0,0-2.554,3.027A.943.943,0,0,0,466,512.3l1.121.856a.943.943,0,0,0,.577.194,1,1,0,0,0,.2-.024.942.942,0,0,0,.634-.483,5.972,5.972,0,0,1,1.679-1.972,2.849,2.849,0,0,1,1.745-.709,2.234,2.234,0,0,1,1.339.473l-4.905,4a.945.945,0,0,0-.2,1.244l.043.071a8.026,8.026,0,0,0,.53.747,6.4,6.4,0,0,0,4.621,2.46,5.026,5.026,0,0,0,3.216-1.225,5.559,5.559,0,0,0,2.114-4.285,7.237,7.237,0,0,0-1.736-4.564,6.208,6.208,0,0,0-4.768-2.493Zm.445,8.784,2.554-2.081a1.829,1.829,0,0,1-.553,2.02,1.587,1.587,0,0,1-1.008.416,1.8,1.8,0,0,1-.993-.355Z" transform="translate(-245.387 -266.97)" fill="#f4cfc9"/>
    <path id="Path_549" data-name="Path 549" d="M457.87,518.686l.445,1.471a5.021,5.021,0,0,0-2.5.823c-1.14.8-1.277,1.745-.776,2.455a1.5,1.5,0,0,0,1.358.681,5.56,5.56,0,0,0,1.358-.218,6.368,6.368,0,0,1,1.646-.251,2.68,2.68,0,0,1,2.346,1.093c.974,1.391.648,3.316-1.206,4.617a5.286,5.286,0,0,1-2.5.951l-.407-1.414a4.106,4.106,0,0,0,2.114-.738,1.535,1.535,0,0,0,.62-2.185,1.285,1.285,0,0,0-1.159-.568,6.529,6.529,0,0,0-1.5.251,6.823,6.823,0,0,1-1.632.236,2.767,2.767,0,0,1-2.45-1.253c-1.06-1.514-.634-3.41,1.419-4.844a5.967,5.967,0,0,1,2.829-1.107m0-.946a.4.4,0,0,0-.076,0,7,7,0,0,0-3.306,1.277c-2.393,1.674-3.056,4.153-1.651,6.163a3.738,3.738,0,0,0,3.226,1.656,7.5,7.5,0,0,0,1.864-.265,6.1,6.1,0,0,1,1.272-.222c.27,0,.312.061.383.161.26.374-.232.762-.388.87a3.193,3.193,0,0,1-1.618.568.959.959,0,0,0-.724.393.942.942,0,0,0-.142.813l.407,1.414a.951.951,0,0,0,.908.686.361.361,0,0,0,.071,0,6.231,6.231,0,0,0,2.966-1.116,4.868,4.868,0,0,0,2.043-2.833,3.825,3.825,0,0,0-.605-3.1,3.591,3.591,0,0,0-3.117-1.5,7.151,7.151,0,0,0-1.9.284,4.689,4.689,0,0,1-1.107.184.572.572,0,0,1-.582-.279c-.293-.421.132-.851.544-1.14a4.066,4.066,0,0,1,1.991-.653.945.945,0,0,0,.875-1.22l-.445-1.471a.918.918,0,0,0-.894-.672Z" transform="translate(-238.261 -272.846)" fill="#f4cfc9"/>
    <path id="Path_550" data-name="Path 550" d="M436.75,533.656l3.581,6.3c.615,1.078,1.159,2,1.7,2.814l-1.457.828-1.078-1.764-.076.043a3.164,3.164,0,0,1-1.4,3.448,1.97,1.97,0,0,1-.506.213l-.894-1.57a2.78,2.78,0,0,0,.6-.265,2.686,2.686,0,0,0,1.017-3.406,5.207,5.207,0,0,0-.364-.818L435.1,534.6l1.651-.941m0-.946a.975.975,0,0,0-.468.123l-1.646.937a.946.946,0,0,0-.355,1.291l2.777,4.881a4.411,4.411,0,0,1,.3.676,1.825,1.825,0,0,1-.6,2.261,1.915,1.915,0,0,1-.412.184.945.945,0,0,0-.6.553.957.957,0,0,0,.057.818l.894,1.57a.957.957,0,0,0,1.078.445,3.043,3.043,0,0,0,.719-.3,3.814,3.814,0,0,0,1.58-1.745.956.956,0,0,0,.506.147.938.938,0,0,0,.468-.123l1.457-.828a.941.941,0,0,0,.322-1.343c-.487-.738-1-1.589-1.665-2.758l-3.581-6.3a.947.947,0,0,0-.572-.445.74.74,0,0,0-.26-.047Z" transform="translate(-228.801 -280.735)" fill="#f4cfc9"/>
    <path id="Path_551" data-name="Path 551" d="M417.033,542.906a4.986,4.986,0,0,1,4.475,3.141c1.381,2.862.79,5.927-1.972,7.265a4.446,4.446,0,0,1-1.939.482c-2.053,0-3.486-1.7-4.139-3.051a7.717,7.717,0,0,1-.331-.833l6.66-3.221a3.4,3.4,0,0,0-3.07-2.157,4.109,4.109,0,0,0-1.774.44,6.934,6.934,0,0,0-2.389,1.76l-.889-1.093a8.506,8.506,0,0,1,2.871-2.114,5.7,5.7,0,0,1,2.5-.62m.842,9.4a2.767,2.767,0,0,0,1.2-.3c1.745-.842,1.731-2.819,1.291-4.082l-5.033,2.436a3.017,3.017,0,0,0,2.54,1.944m-.842-10.349a6.689,6.689,0,0,0-2.914.714,9.4,9.4,0,0,0-3.183,2.36.949.949,0,0,0,0,1.206l.889,1.093a.944.944,0,0,0,.719.35h.014a.944.944,0,0,0,.71-.322,6.021,6.021,0,0,1,2.086-1.533,3.171,3.171,0,0,1,1.362-.345,2.157,2.157,0,0,1,1.693.823l-5.7,2.758a.945.945,0,0,0-.478,1.168l.028.08a6.794,6.794,0,0,0,.341.847c.837,1.731,2.587,3.585,4.99,3.585a5.361,5.361,0,0,0,2.351-.577,5.544,5.544,0,0,0,3.046-3.685,7.242,7.242,0,0,0-.634-4.844,5.892,5.892,0,0,0-5.317-3.68Zm-.331,8.793,2.966-1.433a1.84,1.84,0,0,1-1,1.84,1.794,1.794,0,0,1-.785.2,1.608,1.608,0,0,1-1.178-.61Z" transform="translate(-216.449 -285.61)" fill="#f4cfc9"/>
    <path id="Path_552" data-name="Path 552" d="M396.258,552.206a5.029,5.029,0,0,1,4.7,3.524,5.351,5.351,0,0,1-3.231,7.27,6.8,6.8,0,0,1-2.36.473q-.17,0-.312-.014l-.132-1.537a3.386,3.386,0,0,0,.464.033,4.939,4.939,0,0,0,1.788-.374c2.252-.88,2.814-3.018,2.015-5.066a3.7,3.7,0,0,0-3.434-2.611,3.823,3.823,0,0,0-1.4.274,5.489,5.489,0,0,0-2,1.343l-.828-1.22a7.066,7.066,0,0,1,2.6-1.67,5.83,5.83,0,0,1,2.138-.426m0-.946h0a6.806,6.806,0,0,0-2.483.492,7.986,7.986,0,0,0-2.966,1.93.946.946,0,0,0-.071,1.154l.828,1.22a.96.96,0,0,0,.7.411.539.539,0,0,0,.09,0,.949.949,0,0,0,.672-.279,4.51,4.51,0,0,1,1.674-1.13,2.858,2.858,0,0,1,1.064-.208,2.78,2.78,0,0,1,2.549,2.01,3.325,3.325,0,0,1,.128,2.3,2.583,2.583,0,0,1-1.6,1.532,4.076,4.076,0,0,1-1.443.312,2.288,2.288,0,0,1-.322-.024,1.327,1.327,0,0,0-.137-.009.942.942,0,0,0-.941,1.026l.132,1.537a.949.949,0,0,0,.856.861c.123.01.255.019.4.019a7.693,7.693,0,0,0,2.706-.539,6.288,6.288,0,0,0,3.77-8.5,6.016,6.016,0,0,0-5.6-4.129Z" transform="translate(-205.834 -290.511)" fill="#f4cfc9"/>
    <path id="Path_553" data-name="Path 553" d="M385.078,557.126l3.278,10.009-1.821.6-3.278-10.009,1.821-.6m3.339,11.929a1.152,1.152,0,0,1,1.088.818,1.169,1.169,0,0,1-.766,1.509,1.232,1.232,0,0,1-.4.066,1.192,1.192,0,0,1-.289-2.332,1.117,1.117,0,0,1,.369-.061m-3.339-12.875a.883.883,0,0,0-.293.047l-1.821.6a.945.945,0,0,0-.605,1.192l3.278,10.009a.956.956,0,0,0,.9.653.888.888,0,0,0,.293-.047l.265-.09a2.076,2.076,0,0,0-.667.78,2.026,2.026,0,0,0-.076,1.594,2.077,2.077,0,0,0,1.977,1.476,2.257,2.257,0,0,0,.7-.114,2.139,2.139,0,0,0-.605-4.172l.227-.076a.945.945,0,0,0,.605-1.192l-3.278-10.009a.951.951,0,0,0-.473-.549,1.021,1.021,0,0,0-.426-.1Z" transform="translate(-201.479 -293.104)" fill="#f4cfc9"/>
    <path id="Path_554" data-name="Path 554" d="M366.763,551.546l2.824,11.045c.336,1.305.648,2.351.937,3.311l-1.665.426-.53-1.726-.043.009a4.136,4.136,0,0,1-3.122,2.909,4.307,4.307,0,0,1-1.055.137c-2.067,0-3.912-1.566-4.593-4.214-.937-3.671.832-6.054,3.235-6.669a4.5,4.5,0,0,1,1.107-.142,3.436,3.436,0,0,1,2.445.941l.043-.009-1.419-5.544,1.835-.473M364.6,566a2.985,2.985,0,0,0,2.975-3.112,3.2,3.2,0,0,0-.066-.79l-.449-1.75a4.207,4.207,0,0,0-.279-.738,2.97,2.97,0,0,0-2.6-1.556,2.879,2.879,0,0,0-.743.095c-1.958.5-2.691,2.393-2.091,4.735.454,1.774,1.66,3.117,3.25,3.117m2.166-15.4a1.044,1.044,0,0,0-.236.028l-1.835.468a.938.938,0,0,0-.577.435.955.955,0,0,0-.1.719l.908,3.548a4.885,4.885,0,0,0-1.06-.113,5.539,5.539,0,0,0-4.8,2.819,6.977,6.977,0,0,0-.454,5.17c.766,2.994,2.928,4.929,5.506,4.929a5.228,5.228,0,0,0,1.291-.166,5.325,5.325,0,0,0,2.687-1.561.938.938,0,0,0,.771.4,1.044,1.044,0,0,0,.236-.028l1.665-.426a.947.947,0,0,0,.672-1.192c-.3-1-.6-2.005-.927-3.268l-2.824-11.045a.952.952,0,0,0-.918-.714ZM364.6,565.05c-1.268,0-2.048-1.3-2.332-2.408a3.908,3.908,0,0,1,.038-2.45,1.907,1.907,0,0,1,1.367-1.13,2.064,2.064,0,0,1,.506-.066,2.006,2.006,0,0,1,1.75,1.041,3.286,3.286,0,0,1,.2.544l.449,1.75a2.639,2.639,0,0,1,.038.544,2.119,2.119,0,0,1-1.5,2.114,2.4,2.4,0,0,1-.516.061Z" transform="translate(-188.835 -290.163)" fill="#f4cfc9"/>
    <path id="Path_555" data-name="Path 555" d="M340.656,567.216c2.625,0,4.441,1.722,4.9,4.494.511,3.136-.927,5.908-3.954,6.4a5.257,5.257,0,0,1-.837.071c-2.791,0-3.973-2.516-4.257-4.262a7.523,7.523,0,0,1-.08-.889l7.3-1.2a3.32,3.32,0,0,0-3.391-3.089,5.209,5.209,0,0,0-.762.061,6.968,6.968,0,0,0-2.791,1.007l-.544-1.3a8.471,8.471,0,0,1,3.349-1.211,6.537,6.537,0,0,1,1.074-.09M341,576.78a3.352,3.352,0,0,0,.52-.043c1.911-.312,2.46-2.209,2.4-3.543l-5.52.9a2.8,2.8,0,0,0,2.6,2.682m-.345-10.51a7.307,7.307,0,0,0-1.225.1,9.408,9.408,0,0,0-3.723,1.358.946.946,0,0,0-.35,1.154l.544,1.3a.959.959,0,0,0,.587.539.983.983,0,0,0,.284.043.938.938,0,0,0,.506-.147,5.987,5.987,0,0,1,2.436-.875,3.892,3.892,0,0,1,.61-.052,2.214,2.214,0,0,1,2.19,1.381l-6.248,1.022a.939.939,0,0,0-.79.984l0,.085a7.807,7.807,0,0,0,.085.913c.383,2.332,1.972,5.056,5.194,5.056a5.946,5.946,0,0,0,.989-.085c3.42-.558,5.369-3.637,4.735-7.488-.535-3.268-2.767-5.293-5.827-5.293Zm-1.06,8.585,3.254-.534a1.837,1.837,0,0,1-1.485,1.48,2.594,2.594,0,0,1-.369.033,1.519,1.519,0,0,1-1.4-.979Z" transform="translate(-176.696 -298.421)" fill="#f4cfc9"/>
    <path id="Path_556" data-name="Path 556" d="M322.214,569.576a5.666,5.666,0,0,1,2.389.483l-.345,1.495a5.146,5.146,0,0,0-2.247-.549c-.114,0-.227,0-.336.014-1.386.123-1.977.875-1.9,1.741.08.908.667,1.362,2.124,1.755,1.944.5,2.928,1.466,3.041,2.72.151,1.689-1.093,3.2-3.344,3.4-.17.014-.336.024-.5.024a5.063,5.063,0,0,1-2.138-.445l.355-1.428a4.091,4.091,0,0,0,1.835.43c.118,0,.241,0,.364-.014,1.126-.1,1.7-.809,1.627-1.589-.076-.866-.743-1.2-2.152-1.6-1.883-.53-2.895-1.358-3.037-2.918-.166-1.845,1.149-3.268,3.642-3.491.208-.019.416-.028.62-.028m0-.946a7.076,7.076,0,0,0-.71.033,5.433,5.433,0,0,0-3.4,1.409,3.82,3.82,0,0,0-1.1,3.108c.222,2.479,2.228,3.325,3.723,3.746,1.433.407,1.452.6,1.466.771a.4.4,0,0,1-.1.312,1.046,1.046,0,0,1-.662.251q-.142.014-.284.014a3.124,3.124,0,0,1-1.4-.326.932.932,0,0,0-.43-.1.947.947,0,0,0-.393.085.931.931,0,0,0-.525.634l-.355,1.428a.941.941,0,0,0,.511,1.078,6,6,0,0,0,2.545.535c.194,0,.393-.01.586-.024,2.644-.237,4.413-2.1,4.205-4.427-.109-1.206-.847-2.8-3.746-3.552-1.367-.369-1.4-.653-1.419-.922-.047-.511.539-.672,1.041-.714a2.247,2.247,0,0,1,.251-.01,4.21,4.21,0,0,1,1.8.435.928.928,0,0,0,.445.114.963.963,0,0,0,.393-.085.94.94,0,0,0,.53-.648l.345-1.495a.945.945,0,0,0-.516-1.069,6.613,6.613,0,0,0-2.8-.577Z" transform="translate(-167.053 -299.665)" fill="#f4cfc9"/>
    <path id="Path_557" data-name="Path 557" d="M295.412,571.286l1.892.028-.118,7.242c-.019,1.239-.014,2.308.033,3.287l-1.674-.028-.033-2.067h-.085a3.169,3.169,0,0,1-2.909,2.261h-.043a2.1,2.1,0,0,1-.544-.076l.028-1.807a2.878,2.878,0,0,0,.653.076h.043a2.694,2.694,0,0,0,2.564-2.417,5.366,5.366,0,0,0,.1-.889l.095-5.61m0-.946a.944.944,0,0,0-.946.927l-.09,5.615a4.565,4.565,0,0,1-.085.738c-.076.374-.421,1.641-1.632,1.641h-.028a1.982,1.982,0,0,1-.445-.052.873.873,0,0,0-.222-.028.972.972,0,0,0-.582.2.942.942,0,0,0-.364.733l-.028,1.807a.939.939,0,0,0,.7.927,2.97,2.97,0,0,0,.771.1h.061a3.751,3.751,0,0,0,2.185-.7.947.947,0,0,0,.828.516l1.674.028h.014a.947.947,0,0,0,.946-.993c-.043-.875-.052-1.873-.033-3.221l.118-7.242a.935.935,0,0,0-.265-.672.948.948,0,0,0-.662-.289l-1.892-.028a.063.063,0,0,0-.024,0Z" transform="translate(-153.353 -300.566)" fill="#f4cfc9"/>
    <path id="Path_558" data-name="Path 558" d="M274,570.036q.369,0,.78.028c3.235.222,5.019,2.483,4.8,5.652-.208,3.037-2.091,5.34-4.943,5.34-.123,0-.246,0-.374-.014-3.429-.237-4.134-3.316-4-5.25a6.859,6.859,0,0,1,.128-.885l7.384.506a3.377,3.377,0,0,0-3.354-3.9c-.251-.019-.482-.024-.7-.024a6.471,6.471,0,0,0-2.247.369l-.232-1.391a8.032,8.032,0,0,1,2.758-.435m.724,9.654c1.793,0,2.7-1.646,2.937-2.909l-5.582-.383c-.1,1.216.284,3.141,2.436,3.287.066,0,.137,0,.208,0M274,569.09a8.9,8.9,0,0,0-3.089.5.949.949,0,0,0-.605,1.041l.232,1.391a.944.944,0,0,0,.449.657.927.927,0,0,0,.482.132.978.978,0,0,0,.307-.052,5.486,5.486,0,0,1,1.939-.317c.2,0,.412.01.634.024a2.366,2.366,0,0,1,2.417,1.935l-6.315-.435h-.066a.952.952,0,0,0-.932.776l-.014.085a7.91,7.91,0,0,0-.123.9,6.912,6.912,0,0,0,.785,3.789,4.823,4.823,0,0,0,4.1,2.464q.22.014.44.014c3.212,0,5.634-2.559,5.889-6.22.26-3.794-1.968-6.4-5.681-6.66-.284-.014-.572-.024-.847-.024Zm.724,9.654c-.047,0-.095,0-.142,0a1.52,1.52,0,0,1-1.121-.492,1.893,1.893,0,0,1-.383-.837l3.287.227a1.845,1.845,0,0,1-1.641,1.107Z" transform="translate(-141.924 -299.908)" fill="#f4cfc9"/>
    <path id="Path_559" data-name="Path 559" d="M251.123,567.346a8.857,8.857,0,0,1,1.23.09,5.006,5.006,0,0,1,4.408,6.083,5.293,5.293,0,0,1-5.392,4.787,6.933,6.933,0,0,1-1.022-.076,6.412,6.412,0,0,1-2.549-.927l.648-1.4a4.42,4.42,0,0,0,2.124.818,4.51,4.51,0,0,0,.653.047,3.662,3.662,0,0,0,3.609-3.448,3.607,3.607,0,0,0-3.041-4.427,5.827,5.827,0,0,0-.828-.062,5.679,5.679,0,0,0-1.575.237l-.113-1.466a5.823,5.823,0,0,1,1.849-.255m0-.946h0a6.971,6.971,0,0,0-2.162.307.947.947,0,0,0-.634.965l.114,1.466a.953.953,0,0,0,.4.7.938.938,0,0,0,.544.17.891.891,0,0,0,.251-.033,4.756,4.756,0,0,1,1.324-.2,4.891,4.891,0,0,1,.686.052,2.6,2.6,0,0,1,1.8,1.036,3.157,3.157,0,0,1,.449,2.318,2.711,2.711,0,0,1-2.672,2.639,3.879,3.879,0,0,1-.516-.038,3.478,3.478,0,0,1-1.679-.629.947.947,0,0,0-.582-.2.9.9,0,0,0-.222.028.949.949,0,0,0-.639.525l-.648,1.4a.948.948,0,0,0,.317,1.173,7.283,7.283,0,0,0,2.952,1.083,8.059,8.059,0,0,0,1.159.085,6.2,6.2,0,0,0,6.329-5.6,5.926,5.926,0,0,0-5.2-7.157,10.919,10.919,0,0,0-1.362-.09Z" transform="translate(-130.089 -298.49)" fill="#f4cfc9"/>
    <path id="Path_560" data-name="Path 560" d="M239.58,565.306l1.873.383-2.114,10.316-1.873-.383,2.114-10.316m-1.8,12.232a1.35,1.35,0,0,1,.3.033,1.136,1.136,0,0,1,.894,1.381,1.164,1.164,0,0,1-1.149.96,1.3,1.3,0,0,1-.265-.028,1.133,1.133,0,0,1-.908-1.41,1.105,1.105,0,0,1,1.126-.937m1.8-13.178a.932.932,0,0,0-.52.156.958.958,0,0,0-.407.6l-2.114,10.316a.948.948,0,0,0,.738,1.116l.274.057a2.043,2.043,0,0,0-1.821,1.7,2.089,2.089,0,0,0,1.651,2.512,2.467,2.467,0,0,0,.454.047,2.156,2.156,0,0,0,1.8-3.292,2.038,2.038,0,0,0-.71-.681l.232.047a.858.858,0,0,0,.189.019.931.931,0,0,0,.52-.156.958.958,0,0,0,.407-.6l2.114-10.316a.948.948,0,0,0-.738-1.116l-1.873-.383a.949.949,0,0,0-.194-.024Z" transform="translate(-124.207 -297.415)" fill="#f4cfc9"/>
    <path id="Path_561" data-name="Path 561" d="M223.5,554.276l1.826.5-3.022,10.993c-.359,1.3-.605,2.36-.828,3.339l-1.656-.454.393-1.764-.043-.009a4.06,4.06,0,0,1-2.843,1.164,4.992,4.992,0,0,1-1.306-.185c-2.455-.676-3.732-3.259-2.881-6.343.828-3.018,2.833-4.356,4.858-4.356a4.744,4.744,0,0,1,1.258.17,3.693,3.693,0,0,1,2.687,2.455l.043.009,1.514-5.52m-5.775,12.364a3.424,3.424,0,0,0,3.022-2.337l.478-1.741a4.031,4.031,0,0,0,.123-.78,2.956,2.956,0,0,0-2.176-2.923,3.318,3.318,0,0,0-.861-.123c-1.547,0-2.758,1.225-3.3,3.2-.558,2.034.033,4.073,1.982,4.607a2.509,2.509,0,0,0,.728.1m5.775-13.31a.948.948,0,0,0-.913.7l-.97,3.533a5.138,5.138,0,0,0-2.114-1.14,5.664,5.664,0,0,0-1.509-.208c-2.119,0-4.744,1.329-5.771,5.052a6.815,6.815,0,0,0,.255,4.725,5.048,5.048,0,0,0,3.287,2.781,5.847,5.847,0,0,0,1.556.218,4.971,4.971,0,0,0,1.547-.246.944.944,0,0,0,.691.823l1.656.454a.893.893,0,0,0,.251.033.991.991,0,0,0,.487-.133.939.939,0,0,0,.435-.6c.222-.974.468-2.029.818-3.3l3.022-10.993a.947.947,0,0,0-.662-1.164l-1.826-.5a.826.826,0,0,0-.241-.033Zm-5.775,12.364a1.826,1.826,0,0,1-.482-.066c-1.457-.4-1.712-2.02-1.32-3.443.208-.752.851-2.5,2.389-2.5a2.166,2.166,0,0,1,.61.09,2.013,2.013,0,0,1,1.48,1.968,3.28,3.28,0,0,1-.09.572l-.478,1.741a2.49,2.49,0,0,1-2.11,1.641Z" transform="translate(-111.688 -291.602)" fill="#f4cfc9"/>
    <path id="Path_562" data-name="Path 562" d="M193.5,552.036a8.96,8.96,0,0,1,3.117.624c3.037,1.13,4.11,3.8,3,6.778-.88,2.365-2.72,3.921-4.886,3.921a4.979,4.979,0,0,1-1.726-.322c-3.221-1.2-3.022-4.352-2.346-6.168a6.853,6.853,0,0,1,.374-.813l6.934,2.578a3.373,3.373,0,0,0-2.11-4.683,7.146,7.146,0,0,0-2.578-.516c-.118,0-.232,0-.345.009l.17-1.4c.118,0,.251-.009.393-.009m1.083,9.952a3.5,3.5,0,0,0,2.885-2.072l-5.241-1.949c-.445,1.135-.615,3.089,1.4,3.841a2.719,2.719,0,0,0,.951.18m-1.083-10.9q-.248,0-.454.014a.948.948,0,0,0-.875.828l-.17,1.4a.947.947,0,0,0,.941,1.06h.043c.1,0,.2-.009.3-.009a6.169,6.169,0,0,1,2.252.454,2.366,2.366,0,0,1,1.769,2.54l-5.931-2.209a1,1,0,0,0-.331-.061.949.949,0,0,0-.847.52l-.043.08a7.657,7.657,0,0,0-.374.828,6.908,6.908,0,0,0-.322,3.855,4.825,4.825,0,0,0,3.226,3.524,5.835,5.835,0,0,0,2.053.383c2.516,0,4.73-1.741,5.771-4.536,1.324-3.562-.071-6.7-3.557-8a10.4,10.4,0,0,0-3.453-.672Zm1.083,9.952a1.756,1.756,0,0,1-.624-.118,1.509,1.509,0,0,1-.932-.79,1.883,1.883,0,0,1-.128-.908l3.089,1.149a2.039,2.039,0,0,1-1.4.667Z" transform="translate(-99.772 -290.422)" fill="#f4cfc9"/>
    <path id="Path_563" data-name="Path 563" d="M176.726,545.436a5.149,5.149,0,0,1,2.138.52,5.968,5.968,0,0,1,2.389,1.887l-1.045,1.126a5.037,5.037,0,0,0-1.977-1.745,2.758,2.758,0,0,0-1.154-.284,1.42,1.42,0,0,0-1.358.856c-.383.832-.095,1.514.974,2.578,1.438,1.4,1.816,2.725,1.287,3.869a2.939,2.939,0,0,1-2.762,1.722,4.4,4.4,0,0,1-1.826-.43,5.234,5.234,0,0,1-2.081-1.674l1.017-1.064a4.063,4.063,0,0,0,1.7,1.452,2.239,2.239,0,0,0,.922.222,1.351,1.351,0,0,0,1.277-.79c.364-.79-.047-1.41-1.074-2.455-1.372-1.4-1.84-2.616-1.187-4.039a2.9,2.9,0,0,1,2.758-1.75m0-.946h0a3.825,3.825,0,0,0-3.614,2.3c-1.036,2.261.284,3.992,1.372,5.1,1.045,1.064.96,1.239.889,1.4a.413.413,0,0,1-.416.241,1.358,1.358,0,0,1-.53-.133,3.159,3.159,0,0,1-1.306-1.107.948.948,0,0,0-.7-.426.51.51,0,0,0-.085,0,.949.949,0,0,0-.686.293l-1.017,1.064a.95.95,0,0,0-.095,1.192,6.221,6.221,0,0,0,2.464,2,5.357,5.357,0,0,0,2.223.516,3.872,3.872,0,0,0,3.623-2.275c.506-1.1.657-2.852-1.49-4.943-1-1-.885-1.258-.771-1.5a.487.487,0,0,1,.5-.307,1.937,1.937,0,0,1,.757.2,4.048,4.048,0,0,1,1.57,1.391.947.947,0,0,0,.714.44.54.54,0,0,0,.09,0,.953.953,0,0,0,.7-.3l1.045-1.126a.942.942,0,0,0,.08-1.183,6.967,6.967,0,0,0-2.772-2.2,5.971,5.971,0,0,0-2.54-.62Z" transform="translate(-89.786 -286.943)" fill="#f4cfc9"/>
    <path id="Path_564" data-name="Path 564" d="M154.337,534.826l1.637.946-3.628,6.272c-.62,1.074-1.135,2.005-1.57,2.89l-1.452-.837.979-1.821-.076-.043a3.479,3.479,0,0,1-2.275.908,2.778,2.778,0,0,1-1.4-.374,2.057,2.057,0,0,1-.44-.331l.9-1.566a2.842,2.842,0,0,0,.534.383,2.39,2.39,0,0,0,1.2.326A3.006,3.006,0,0,0,151,540.407a4.9,4.9,0,0,0,.52-.728l2.819-4.853m0-.946a.879.879,0,0,0-.246.033.941.941,0,0,0-.572.44l-2.81,4.858a4.169,4.169,0,0,1-.435.6,2.112,2.112,0,0,1-1.528.828,1.4,1.4,0,0,1-.724-.2,1.807,1.807,0,0,1-.364-.26.952.952,0,0,0-.639-.251,1.42,1.42,0,0,0-.142.01.937.937,0,0,0-.676.464l-.9,1.566a.947.947,0,0,0,.161,1.154,3.046,3.046,0,0,0,.62.468,3.77,3.77,0,0,0,1.878.5c.142,0,.284-.01.426-.024a.947.947,0,0,0,.473.851l1.452.837a.935.935,0,0,0,.473.128.953.953,0,0,0,.847-.53c.393-.795.866-1.67,1.537-2.833l3.628-6.272a.944.944,0,0,0-.345-1.291l-1.637-.946a.934.934,0,0,0-.473-.128Z" transform="translate(-76.507 -281.352)" fill="#f4cfc9"/>
    <path id="Path_565" data-name="Path 565" d="M135.3,521.166a8.488,8.488,0,0,1,3.273,1.409c2.7,1.8,3.117,4.654,1.348,7.294a5.751,5.751,0,0,1-4.635,2.8,4.7,4.7,0,0,1-2.63-.833c-2.857-1.916-1.935-4.933-.856-6.546a6.968,6.968,0,0,1,.553-.7l6.149,4.12a3.374,3.374,0,0,0-.965-5.047,6.961,6.961,0,0,0-2.725-1.173l.487-1.324m-.284,10.08a3.776,3.776,0,0,0,2.706-1.414l-4.645-3.112c-.7,1-1.315,2.866.473,4.063a2.561,2.561,0,0,0,1.466.464m.284-11.026a.944.944,0,0,0-.885.615l-.492,1.32a.937.937,0,0,0,.061.795.949.949,0,0,0,.648.464A5.994,5.994,0,0,1,137,524.439a2.36,2.36,0,0,1,1.13,2.881l-5.26-3.524a.944.944,0,0,0-1.249.175l-.057.066a6.764,6.764,0,0,0-.558.724c-1.637,2.445-1.925,5.818,1.116,7.857a5.581,5.581,0,0,0,3.16.993,6.632,6.632,0,0,0,5.421-3.226,6.351,6.351,0,0,0,1.145-4.65,6.038,6.038,0,0,0-2.753-3.959,9.448,9.448,0,0,0-3.647-1.556c-.052,0-.1,0-.156,0Zm-.284,10.08a1.647,1.647,0,0,1-.941-.3,1.52,1.52,0,0,1-.724-.984,1.893,1.893,0,0,1,.085-.913l2.734,1.831a2.249,2.249,0,0,1-1.154.369Z" transform="translate(-68.408 -274.153)" fill="#f4cfc9"/>
    <path id="Path_566" data-name="Path 566" d="M116.517,507.826a7.073,7.073,0,0,1,2.753,1.4,5.005,5.005,0,0,1,.795,7.469,5.473,5.473,0,0,1-4.3,2.237,5.823,5.823,0,0,1-3.6-1.343,6.415,6.415,0,0,1-1.75-2.072l1.258-.894a4.489,4.489,0,0,0,1.433,1.769,3.675,3.675,0,0,0,2.285.851,4.02,4.02,0,0,0,3.1-1.679,3.608,3.608,0,0,0-.435-5.354,5.529,5.529,0,0,0-2.166-1.045l.629-1.334m0-.946a.956.956,0,0,0-.856.539l-.634,1.329a.945.945,0,0,0,.615,1.324,4.49,4.49,0,0,1,1.821.87,2.58,2.58,0,0,1,1.041,1.793,3.141,3.141,0,0,1-.766,2.233,3.07,3.07,0,0,1-2.36,1.315,2.722,2.722,0,0,1-1.7-.648,3.484,3.484,0,0,1-1.14-1.377.947.947,0,0,0-.61-.553.989.989,0,0,0-.265-.038.958.958,0,0,0-.549.175l-1.258.894a.946.946,0,0,0-.307,1.173,7.35,7.35,0,0,0,2.02,2.412,6.778,6.778,0,0,0,4.191,1.547,6.385,6.385,0,0,0,5.042-2.6,5.924,5.924,0,0,0-.951-8.8,7.885,7.885,0,0,0-3.164-1.58.947.947,0,0,0-.17-.014Z" transform="translate(-57.688 -267.123)" fill="#f4cfc9"/>
    <path id="Path_567" data-name="Path 567" d="M107.122,501.586l1.438,1.268-6.967,7.894-1.438-1.268,6.967-7.894m-8.235,9.55a1.274,1.274,0,0,1,.837.341,1.138,1.138,0,0,1,.085,1.646,1.191,1.191,0,0,1-.894.416,1.208,1.208,0,0,1-.795-.312,1.137,1.137,0,0,1-.09-1.674,1.11,1.11,0,0,1,.856-.416m8.235-10.5a.948.948,0,0,0-.71.322l-6.967,7.894a.959.959,0,0,0-.237.686.947.947,0,0,0,.317.653l.208.185a2.111,2.111,0,0,0-.847-.18h0a2.073,2.073,0,0,0-1.575.747,2.173,2.173,0,0,0-.553,1.5,2.081,2.081,0,0,0,.733,1.5,2.116,2.116,0,0,0,3.027-.189,2.087,2.087,0,0,0,.265-2.45l.18.156a.959.959,0,0,0,.624.237h.057a.948.948,0,0,0,.653-.317l6.967-7.894a.959.959,0,0,0,.236-.686.948.948,0,0,0-.317-.653l-1.438-1.268a.9.9,0,0,0-.624-.241Z" transform="translate(-50.994 -263.835)" fill="#f4cfc9"/>
    <path id="Path_568" data-name="Path 568" d="M92.047,486.516a4.523,4.523,0,0,1,3.221,1.367,3.684,3.684,0,0,1,1.112,3.467l.033.033,4.058-4.035,1.334,1.343-8.084,8.041c-.955.951-1.7,1.75-2.374,2.488L90.136,498l1.22-1.334-.028-.028a4.606,4.606,0,0,1-1.064.128,4.186,4.186,0,0,1-3.027-1.343c-1.8-1.807-1.618-4.683.653-6.939a5.905,5.905,0,0,1,4.158-1.968m-1.253,9.077a3.258,3.258,0,0,0,1.656-.459,3.045,3.045,0,0,0,.648-.459l1.282-1.272a4.308,4.308,0,0,0,.492-.615,2.96,2.96,0,0,0-.435-3.618,2.876,2.876,0,0,0-2.072-.9,4.513,4.513,0,0,0-3.07,1.5c-1.5,1.49-2,3.548-.568,4.985a2.9,2.9,0,0,0,2.067.837m1.253-10.023a6.888,6.888,0,0,0-4.834,2.237,6.81,6.81,0,0,0-2.124,4.229,5.053,5.053,0,0,0,1.471,4.049,5.325,5.325,0,0,0,2.71,1.518.953.953,0,0,0,.189,1.06l1.211,1.22a.949.949,0,0,0,.672.279h.019a.939.939,0,0,0,.676-.3c.7-.766,1.419-1.533,2.346-2.455l8.084-8.041a.93.93,0,0,0,.279-.667.965.965,0,0,0-.274-.672l-1.334-1.343a.948.948,0,0,0-1.339,0l-2.6,2.583a5.166,5.166,0,0,0-1.268-2.039,5.418,5.418,0,0,0-3.888-1.651Zm-1.253,9.077a1.957,1.957,0,0,1-1.4-.558,1.87,1.87,0,0,1-.549-1.665,3.679,3.679,0,0,1,1.112-1.982,3.64,3.64,0,0,1,2.4-1.23,1.923,1.923,0,0,1,1.4.624,2.007,2.007,0,0,1,.307,2.441,3.405,3.405,0,0,1-.359.449L92.425,494a2.465,2.465,0,0,1-.449.307,2.275,2.275,0,0,1-1.183.341Z" transform="translate(-44.834 -255.893)" fill="#f4cfc9"/>
    <path id="Path_569" data-name="Path 569" d="M76.413,466.926a8.5,8.5,0,0,1,2.748,2.27c2.076,2.488,1.679,5.345-.757,7.379a6.245,6.245,0,0,1-3.945,1.57,4.581,4.581,0,0,1-3.581-1.722c-2.2-2.639-.468-5.279,1.022-6.523a7.28,7.28,0,0,1,.728-.52l4.74,5.681a3.379,3.379,0,0,0,.492-5.118,7,7,0,0,0-2.285-1.892l.837-1.126m-2.322,9.7a4.165,4.165,0,0,0,2.209-.7l-3.585-4.295c-.951.766-2.067,2.379-.686,4.035a2.592,2.592,0,0,0,2.062.965m2.327-10.647a.939.939,0,0,0-.757.378l-.842,1.13a.955.955,0,0,0-.166.78.943.943,0,0,0,.492.629,5.991,5.991,0,0,1,1.991,1.656,2.359,2.359,0,0,1,.274,3.084l-4.058-4.862a.945.945,0,0,0-.728-.341.955.955,0,0,0-.52.156l-.071.047a7.646,7.646,0,0,0-.743.539c-2.256,1.883-3.486,5.042-1.14,7.852a5.55,5.55,0,0,0,4.3,2.062A7.235,7.235,0,0,0,79.01,477.3c2.918-2.436,3.264-5.856.88-8.713a9.445,9.445,0,0,0-3.06-2.516.985.985,0,0,0-.411-.095Zm-2.327,9.7a1.65,1.65,0,0,1-1.339-.624,1.529,1.529,0,0,1-.421-1.149,1.879,1.879,0,0,1,.341-.856l2.11,2.531a2.564,2.564,0,0,1-.691.1Z" transform="translate(-36.305 -245.569)" fill="#f4cfc9"/>
    <path id="Path_570" data-name="Path 570" d="M63.863,453.576A4,4,0,0,1,67,455.515a6.044,6.044,0,0,1,1.145,2.824l-1.462.464a4.99,4.99,0,0,0-.851-2.493,2.075,2.075,0,0,0-1.618-1.031,1.435,1.435,0,0,0-.847.284c-.743.534-.832,1.268-.43,2.72.553,1.93.227,3.264-.8,4a2.912,2.912,0,0,1-1.7.553,3.658,3.658,0,0,1-2.928-1.708,5.287,5.287,0,0,1-.979-2.483l1.41-.426a4.081,4.081,0,0,0,.762,2.1,1.787,1.787,0,0,0,1.414.851,1.324,1.324,0,0,0,.776-.255c.71-.506.657-1.249.284-2.668-.5-1.892-.3-3.183.97-4.1a2.88,2.88,0,0,1,1.717-.582m0-.946h0a3.884,3.884,0,0,0-2.275.757c-2.02,1.452-1.726,3.609-1.334,5.108.383,1.438.222,1.556.08,1.656a.375.375,0,0,1-.227.076.917.917,0,0,1-.648-.454,3.143,3.143,0,0,1-.587-1.608.952.952,0,0,0-.4-.719.938.938,0,0,0-.544-.17,1.032,1.032,0,0,0-.27.038l-1.41.426a.948.948,0,0,0-.672.989,6.165,6.165,0,0,0,1.154,2.952,4.642,4.642,0,0,0,3.7,2.1,3.855,3.855,0,0,0,2.251-.733c.984-.7,1.982-2.152,1.154-5.033-.378-1.367-.147-1.533.076-1.689a.512.512,0,0,1,.293-.109c.251,0,.558.232.851.639a4.085,4.085,0,0,1,.676,1.982.944.944,0,0,0,.946.9.983.983,0,0,0,.284-.043l1.462-.464a.94.94,0,0,0,.657-.989,6.976,6.976,0,0,0-1.315-3.287,4.927,4.927,0,0,0-3.9-2.327Z" transform="translate(-29.29 -238.534)" fill="#f4cfc9"/>
    <path id="Path_571" data-name="Path 571" d="M51.638,435.706l.955,1.637L46.335,441c-1.069.624-1.982,1.182-2.791,1.731l-.847-1.447,1.75-1.1-.043-.076a3.8,3.8,0,0,1-.79.08,3.022,3.022,0,0,1-2.672-1.433,2.238,2.238,0,0,1-.218-.5l1.561-.913a2.943,2.943,0,0,0,.274.6,2.431,2.431,0,0,0,2.181,1.206,3.636,3.636,0,0,0,1.235-.227,5.273,5.273,0,0,0,.814-.374l4.848-2.838m0-.946a.978.978,0,0,0-.478.128l-4.848,2.833a4.955,4.955,0,0,1-.672.307,2.683,2.683,0,0,1-.9.166,1.507,1.507,0,0,1-1.367-.738,2.034,2.034,0,0,1-.189-.407.951.951,0,0,0-.563-.6.918.918,0,0,0-.336-.062.952.952,0,0,0-.478.128l-1.561.913a.947.947,0,0,0-.43,1.083,2.963,2.963,0,0,0,.307.714,3.763,3.763,0,0,0,1.764,1.556.937.937,0,0,0-.009.974l.847,1.447a.935.935,0,0,0,.605.445,1.08,1.08,0,0,0,.208.024.956.956,0,0,0,.53-.161c.733-.5,1.575-1.017,2.739-1.7l6.258-3.656a.945.945,0,0,0,.341-1.3l-.955-1.637a.927.927,0,0,0-.814-.468Z" transform="translate(-20.966 -229.116)" fill="#f4cfc9"/>
    <path id="Path_572" data-name="Path 572" d="M41.468,412.406a8.542,8.542,0,0,1,2.147,2.843c1.447,2.9.4,5.586-2.441,7.005a6.746,6.746,0,0,1-3,.752,4.606,4.606,0,0,1-4.281-2.639c-1.533-3.075.766-5.246,2.5-6.107a7.829,7.829,0,0,1,.828-.341l3.3,6.622a3.371,3.371,0,0,0,1.66-4.862,6.93,6.93,0,0,0-1.788-2.365l1.078-.908M37.784,421.4a4.518,4.518,0,0,0,1.495-.265l-2.493-5c-1.1.525-2.564,1.835-1.6,3.765a2.729,2.729,0,0,0,2.6,1.5m3.685-9.938a.939.939,0,0,0-.605.222l-1.083.9a.966.966,0,0,0-.341.719.943.943,0,0,0,.331.724,6.046,6.046,0,0,1,1.556,2.072,2.364,2.364,0,0,1-.445,3.065L38.058,413.5a.945.945,0,0,0-.847-.525.987.987,0,0,0-.326.057l-.08.028a8.08,8.08,0,0,0-.842.35c-2.63,1.31-4.555,4.1-2.923,7.374a5.552,5.552,0,0,0,5.127,3.164,7.744,7.744,0,0,0,3.425-.851c3.4-1.693,4.527-4.943,2.866-8.273a9.437,9.437,0,0,0-2.393-3.155.952.952,0,0,0-.6-.208Zm-3.685,8.992a1.786,1.786,0,0,1-1.75-.984,1.532,1.532,0,0,1-.142-1.216,1.907,1.907,0,0,1,.525-.752l1.471,2.947a.792.792,0,0,1-.1,0Z" transform="translate(-17.098 -216.837)" fill="#f4cfc9"/>
    <path id="Path_573" data-name="Path 573" d="M32.121,392.376a7.016,7.016,0,0,1,1.7,2.573,5,5,0,0,1-3.018,6.877,6.139,6.139,0,0,1-2.313.468,5.341,5.341,0,0,1-4.995-3.618A6.359,6.359,0,0,1,23,396.013l1.537-.151a4.438,4.438,0,0,0,.369,2.247,3.461,3.461,0,0,0,3.311,2.322,4.723,4.723,0,0,0,1.774-.364,3.609,3.609,0,0,0,2.28-4.867,5.406,5.406,0,0,0-1.367-1.982l1.216-.842m-7.578,3.491h0m7.578-4.437a.934.934,0,0,0-.539.17l-1.211.842a.948.948,0,0,0-.118,1.457,4.549,4.549,0,0,1,1.149,1.66,2.6,2.6,0,0,1,.014,2.077,3.152,3.152,0,0,1-1.774,1.561,3.839,3.839,0,0,1-1.419.3,2.5,2.5,0,0,1-2.436-1.731,3.51,3.51,0,0,1-.312-1.722.948.948,0,0,0-.932-1.112H24.52a.6.6,0,0,0-.09,0l-1.523.151a.953.953,0,0,0-.851.866,7.228,7.228,0,0,0,.558,3.093,6.288,6.288,0,0,0,5.87,4.21,7.071,7.071,0,0,0,2.668-.539,5.925,5.925,0,0,0,3.538-8.112,7.922,7.922,0,0,0-1.963-2.942.892.892,0,0,0-.605-.232Z" transform="translate(-11.619 -206.282)" fill="#f4cfc9"/>
    <path id="Path_574" data-name="Path 574" d="M25.213,384.126l.615,1.812-9.971,3.4-.62-1.812,9.976-3.4m-12.421,4.068a1.157,1.157,0,0,1,1.088.851,1.14,1.14,0,0,1-.743,1.471,1.255,1.255,0,0,1-.412.071,1.154,1.154,0,0,1-1.107-.818,1.136,1.136,0,0,1,.752-1.5,1.221,1.221,0,0,1,.421-.076m12.421-5.014a.926.926,0,0,0-.3.052l-9.971,3.4a.935.935,0,0,0-.544.478.961.961,0,0,0-.047.724l.095.27a2.033,2.033,0,0,0-1.651-.851h0a2.208,2.208,0,0,0-.738.132,2.132,2.132,0,0,0,.676,4.148,2.174,2.174,0,0,0,.714-.118,2.1,2.1,0,0,0,1.447-2l.076.227a.947.947,0,0,0,.894.643.851.851,0,0,0,.3-.052l9.971-3.4a.948.948,0,0,0,.591-1.2l-.615-1.812a.935.935,0,0,0-.478-.544,1.011,1.011,0,0,0-.421-.095Z" transform="translate(-5.592 -201.934)" fill="#f4cfc9"/>
    <path id="Path_575" data-name="Path 575" d="M19.217,360.286a4.629,4.629,0,0,1,4.716,3.439,3.7,3.7,0,0,1-.757,3.562l.009.043,5.529-1.48.492,1.83L18.2,370.631c-1.3.35-2.341.672-3.3.974l-.445-1.66,1.722-.553-.009-.043a4.151,4.151,0,0,1-2.947-3.084c-.657-2.46.927-4.867,4.016-5.695a7.475,7.475,0,0,1,1.982-.284m-1.372,8.33h.066a3.163,3.163,0,0,0,.757-.076l1.745-.468a4.391,4.391,0,0,0,.733-.288,2.953,2.953,0,0,0,1.419-3.354,3.032,3.032,0,0,0-3.188-2.256,6.158,6.158,0,0,0-1.57.222c-2.039.549-3.5,2.086-2.97,4.039a3.059,3.059,0,0,0,3.008,2.181m1.372-9.276a8.576,8.576,0,0,0-2.233.312,6.779,6.779,0,0,0-3.945,2.611,5.064,5.064,0,0,0-.738,4.243,5.354,5.354,0,0,0,1.589,2.668.951.951,0,0,0-.359,1.012l.445,1.66a.951.951,0,0,0,.459.587.97.97,0,0,0,.454.118.984.984,0,0,0,.284-.043c1-.317,2.006-.629,3.259-.965l11.012-2.952a.943.943,0,0,0,.667-1.159l-.492-1.831a.948.948,0,0,0-.913-.7.881.881,0,0,0-.246.033l-3.538.951a5.114,5.114,0,0,0-.085-2.4,5.588,5.588,0,0,0-5.619-4.148Zm-1.372,8.33a2.111,2.111,0,0,1-2.091-1.48c-.393-1.462.875-2.5,2.3-2.881a5.051,5.051,0,0,1,1.324-.189,2.125,2.125,0,0,1,2.275,1.556,2.01,2.01,0,0,1-.946,2.27,3.455,3.455,0,0,1-.539.213l-1.745.468a2.422,2.422,0,0,1-.511.043h-.071Z" transform="translate(-6.392 -189.37)" fill="#f4cfc9"/>
    <path id="Path_576" data-name="Path 576" d="M17.592,337.246a8.518,8.518,0,0,1,1.249,3.335c.563,3.193-1.2,5.468-4.328,6.021a7.373,7.373,0,0,1-1.31.118,4.857,4.857,0,0,1-5.142-4c-.6-3.387,2.223-4.811,4.129-5.146a6.911,6.911,0,0,1,.889-.09l1.282,7.284a3.373,3.373,0,0,0,2.975-4.191A6.888,6.888,0,0,0,16.3,337.8l1.3-.558M12.753,345c.09,0,.175,0,.26-.009l-.97-5.506c-1.2.189-2.975,1.031-2.6,3.155A3.086,3.086,0,0,0,12.753,345m4.839-8.7a.926.926,0,0,0-.374.076l-1.291.558a.936.936,0,0,0-.53.6.953.953,0,0,0,.114.79,5.945,5.945,0,0,1,.9,2.427,2.36,2.36,0,0,1-1.3,2.81l-1.1-6.234a.944.944,0,0,0-.932-.78h-.061l-.085,0a6.471,6.471,0,0,0-.908.1,6.923,6.923,0,0,0-3.491,1.674,4.831,4.831,0,0,0-1.41,4.569,5.8,5.8,0,0,0,6.073,4.777,8.308,8.308,0,0,0,1.476-.132,6.354,6.354,0,0,0,4.148-2.393,6.029,6.029,0,0,0,.951-4.725,9.457,9.457,0,0,0-1.4-3.7.98.98,0,0,0-.79-.412Zm-5.723,7.644a1.849,1.849,0,0,1-1.5-1.471,1.536,1.536,0,0,1,.208-1.206,1.962,1.962,0,0,1,.719-.572l.572,3.25Z" transform="translate(-3.712 -177.228)" fill="#f4cfc9"/>
    <path id="Path_577" data-name="Path 577" d="M13,319.026c1.674,0,2.956,1.287,3.193,3.618a5.974,5.974,0,0,1-.416,3.018l-1.5-.331a5.027,5.027,0,0,0,.506-2.587c-.132-1.3-.8-1.887-1.594-1.887-.057,0-.114,0-.166.009-.908.09-1.353.681-1.731,2.143-.482,1.949-1.428,2.942-2.687,3.07q-.156.014-.312.014c-1.561,0-2.914-1.206-3.127-3.32a5.219,5.219,0,0,1,.388-2.639l1.433.336a4.1,4.1,0,0,0-.388,2.2c.109,1.055.743,1.618,1.462,1.618.047,0,.095,0,.142-.009.866-.09,1.192-.757,1.575-2.171.511-1.887,1.324-2.909,2.881-3.07q.17-.014.341-.014m0-.946c-.142,0-.293.009-.44.024-2.474.251-3.3,2.266-3.7,3.765-.388,1.438-.582,1.457-.757,1.476H8.06c-.326,0-.482-.4-.52-.766a3.182,3.182,0,0,1,.293-1.689.948.948,0,0,0-.629-1.343l-1.433-.336a.854.854,0,0,0-.218-.024.944.944,0,0,0-.856.549,6.226,6.226,0,0,0-.473,3.136c.246,2.455,1.92,4.172,4.068,4.172a3.963,3.963,0,0,0,.407-.019c1.206-.123,2.791-.875,3.51-3.784.355-1.372.634-1.4.908-1.428.024,0,.047,0,.071,0,.478,0,.615.648.657,1.036a4.058,4.058,0,0,1-.4,2.058.947.947,0,0,0-.019.837.935.935,0,0,0,.653.52l1.5.331a.994.994,0,0,0,.2.024.95.95,0,0,0,.861-.549,6.965,6.965,0,0,0,.5-3.5c-.279-2.724-1.9-4.479-4.134-4.479Z" transform="translate(-2.212 -167.627)" fill="#f4cfc9"/>
    <path id="Path_578" data-name="Path 578" d="M5.559,293.586h0m0,0a2.727,2.727,0,0,0-.057.653A2.686,2.686,0,0,0,8,296.765a5.467,5.467,0,0,0,.832.071H8.9l5.615-.09.033,1.892-7.242.118c-1.239.019-2.308.061-3.283.142l-.028-1.674,2.067-.1v-.085a3.15,3.15,0,0,1-2.351-2.876,1.942,1.942,0,0,1,.057-.544l1.793-.033m0-.946H5.54l-1.8.028a.944.944,0,0,0-.908.733,3.023,3.023,0,0,0-.08.776,3.755,3.755,0,0,0,.776,2.218.955.955,0,0,0-.487.842l.028,1.674a.95.95,0,0,0,.946.932.459.459,0,0,0,.08,0c.885-.071,1.878-.114,3.221-.137l7.242-.118a.945.945,0,0,0,.927-.96l-.033-1.892a.949.949,0,0,0-.946-.932h-.014l-5.615.09H8.827a4.513,4.513,0,0,1-.691-.062c-.383-.061-1.674-.374-1.693-1.608a1.768,1.768,0,0,1,.028-.407.943.943,0,0,0-.913-1.173Zm0,1.892Z" transform="translate(-1.452 -154.22)" fill="#f4cfc9"/>
    <path id="Path_579" data-name="Path 579" d="M9.128,271.416c.128,0,.246,0,.364.009a7.5,7.5,0,0,1,.889.118l-.421,7.388c.08,0,.161,0,.237,0a3.343,3.343,0,0,0,3.618-3.4,6.86,6.86,0,0,0-.378-2.942l1.386-.246a8.552,8.552,0,0,1,.454,3.533,4.838,4.838,0,0,1-5.165,4.881c-.142,0-.284,0-.43-.014-3.174-.18-5.563-2.19-5.388-5.255.18-3.226,2.9-4.077,4.834-4.077m-.539,7.417.317-5.581c-.1-.009-.2-.009-.312-.009a2.641,2.641,0,0,0-2.947,2.483c-.109,1.93,1.627,2.876,2.942,3.108m.539-8.363h0c-2.535,0-5.572,1.3-5.78,4.967-.2,3.458,2.384,6.031,6.277,6.253q.248.014.482.014a5.785,5.785,0,0,0,6.111-5.771,9.473,9.473,0,0,0-.511-3.926.947.947,0,0,0-.885-.605.978.978,0,0,0-.166.014l-1.386.246a.948.948,0,0,0-.653.459.937.937,0,0,0-.071.795,5.974,5.974,0,0,1,.322,2.568,2.369,2.369,0,0,1-1.906,2.441l.359-6.319a.947.947,0,0,0-.785-.989l-.08-.014a7.4,7.4,0,0,0-.908-.114,4.116,4.116,0,0,0-.421-.019Zm-1.414,7.076a1.84,1.84,0,0,1-1.121-1.774,1.523,1.523,0,0,1,1.31-1.523l-.189,3.3Z" transform="translate(-1.762 -142.536)" fill="#f4cfc9"/>
    <path id="Path_580" data-name="Path 580" d="M7.769,249.056l1.41.629a4.435,4.435,0,0,0-.795,2.133c-.322,2.393,1.272,3.926,3.448,4.219a5.17,5.17,0,0,0,.7.047,3.521,3.521,0,0,0,3.689-3.146,5.4,5.4,0,0,0-.2-2.4l1.466-.132a7.025,7.025,0,0,1,.2,3.079,4.917,4.917,0,0,1-5.094,4.541,6.307,6.307,0,0,1-.932-.066A5.353,5.353,0,0,1,6.87,251.61a6.512,6.512,0,0,1,.9-2.554m0-.946a.944.944,0,0,0-.78.411,7.237,7.237,0,0,0-1.05,2.966,6.585,6.585,0,0,0,1.2,4.995,6.569,6.569,0,0,0,4.394,2.422,8.129,8.129,0,0,0,1.06.071,5.869,5.869,0,0,0,6.031-5.364,7.975,7.975,0,0,0-.246-3.529.943.943,0,0,0-.889-.624.517.517,0,0,0-.085,0l-1.466.132a.949.949,0,0,0-.7.407.93.93,0,0,0-.128.795,4.539,4.539,0,0,1,.175,2.01,2.6,2.6,0,0,1-2.753,2.327,4.926,4.926,0,0,1-.577-.038,3.333,3.333,0,0,1-2.076-1.008,2.611,2.611,0,0,1-.563-2.147,3.5,3.5,0,0,1,.605-1.684.951.951,0,0,0,.166-.809.932.932,0,0,0-.53-.629l-1.41-.629a.9.9,0,0,0-.383-.08Z" transform="translate(-3.094 -130.753)" fill="#f4cfc9"/>
    <path id="Path_581" data-name="Path 581" d="M2.1,237.926a1.721,1.721,0,0,1,.265.024,1.188,1.188,0,0,1-.208,2.351,1.389,1.389,0,0,1-.241-.024,1.171,1.171,0,0,1-.951-1.4,1.129,1.129,0,0,1,1.135-.951m3.131.8,10.34,1.991-.364,1.878L4.864,240.6l.364-1.878M2.1,236.98h0A2.06,2.06,0,0,0,.035,238.7a2.127,2.127,0,0,0,1.7,2.512,2.154,2.154,0,0,0,.421.043A2.075,2.075,0,0,0,3.98,240.2l-.047.232a.945.945,0,0,0,.752,1.107l10.34,1.991a1.227,1.227,0,0,0,.18.019.946.946,0,0,0,.927-.766L16.5,240.9a.945.945,0,0,0-.752-1.107L5.4,237.8a1.223,1.223,0,0,0-.18-.019.946.946,0,0,0-.927.766l-.052.274a2.08,2.08,0,0,0-.359-.96,2.065,2.065,0,0,0-1.358-.842,2.212,2.212,0,0,0-.43-.043Z" transform="translate(0 -124.887)" fill="#f4cfc9"/>
    <path id="Path_582" data-name="Path 582" d="M17.113,213.946a6.93,6.93,0,0,1,1.788.241c3.661.96,4.886,3.666,4.257,6.064a3.686,3.686,0,0,1-2.422,2.715l-.009.043,5.534,1.452-.478,1.831-11.03-2.89c-1.305-.341-2.37-.577-3.349-.785l.435-1.665,1.769.374.009-.043a4.136,4.136,0,0,1-1.031-4.139,4.409,4.409,0,0,1,4.527-3.2m1.618,8.448a2.952,2.952,0,0,0,2.895-2.209c.511-1.958-.79-3.514-3.127-4.125a5.406,5.406,0,0,0-1.376-.184,2.976,2.976,0,0,0-1.646,5.624,3.227,3.227,0,0,0,.724.326l1.745.459a4.953,4.953,0,0,0,.785.109M17.113,213a5.362,5.362,0,0,0-5.373,7.01.943.943,0,0,0-.809.7l-.435,1.665a.947.947,0,0,0,.109.733.959.959,0,0,0,.605.43c1.022.222,2.048.449,3.306.776l11.03,2.89a1.059,1.059,0,0,0,.241.033.939.939,0,0,0,.913-.7l.478-1.831a.957.957,0,0,0-.1-.719.938.938,0,0,0-.577-.435l-3.543-.927a5.2,5.2,0,0,0,1.116-2.124,5.44,5.44,0,0,0-.634-4.314,6.957,6.957,0,0,0-4.3-2.9A7.624,7.624,0,0,0,17.113,213Zm1.651,8.448a2.783,2.783,0,0,1-.572-.085l-1.745-.459a2.184,2.184,0,0,1-.492-.232,2.115,2.115,0,0,1-1.116-2.341,2.16,2.16,0,0,1,2.289-1.518,4.573,4.573,0,0,1,1.135.151c.71.184,2.98.951,2.45,2.97a2.015,2.015,0,0,1-1.949,1.514Z" transform="translate(-5.518 -112.25)" fill="#f4cfc9"/>
    <path id="Path_583" data-name="Path 583" d="M24.971,191.216a6.376,6.376,0,0,1,2.97.747l-2.5,6.963a4.712,4.712,0,0,0,1.5.27A3.311,3.311,0,0,0,30.1,196.76a6.94,6.94,0,0,0,.473-2.928l1.4.156a8.542,8.542,0,0,1-.568,3.519,4.771,4.771,0,0,1-4.588,3.481,6.388,6.388,0,0,1-2.162-.4c-2.989-1.074-4.716-3.68-3.68-6.565a3.972,3.972,0,0,1,3.992-2.8m-.814,7.223,1.887-5.265a4.068,4.068,0,0,0-1.414-.27,2.4,2.4,0,0,0-2.412,1.717c-.653,1.826.743,3.226,1.939,3.817m.814-8.169h0a4.893,4.893,0,0,0-4.881,3.429c-1.168,3.264.577,6.461,4.248,7.776a7.344,7.344,0,0,0,2.479.454,5.688,5.688,0,0,0,5.477-4.11,9.356,9.356,0,0,0,.62-3.912.948.948,0,0,0-.837-.866l-1.4-.156a.764.764,0,0,0-.1,0,.947.947,0,0,0-.946,1,6.039,6.039,0,0,1-.416,2.554,2.4,2.4,0,0,1-2.266,1.812c-.08,0-.166,0-.255-.009l2.138-5.96a.949.949,0,0,0-.473-1.168l-.076-.038a7.129,7.129,0,0,0-.842-.364,7.282,7.282,0,0,0-2.464-.44Zm-1.287,6.693a1.83,1.83,0,0,1-.572-2.015,1.468,1.468,0,0,1,1.523-1.088c.052,0,.109,0,.161,0l-1.112,3.1Z" transform="translate(-10.4 -100.271)" fill="#f4cfc9"/>
    <path id="Path_584" data-name="Path 584" d="M30.786,172.246l1.078,1a4.09,4.09,0,0,0-1.433,1.722,1.539,1.539,0,0,0,.6,2.195,1.273,1.273,0,0,0,.539.123c.568,0,1.116-.43,1.906-1.23a4.1,4.1,0,0,1,2.814-1.514,2.987,2.987,0,0,1,1.211.274c1.689.752,2.3,2.592,1.282,4.881a5.964,5.964,0,0,1-1.859,2.412l-1.14-1.031a5.024,5.024,0,0,0,1.722-2c.568-1.272.194-2.152-.6-2.507a1.636,1.636,0,0,0-.657-.151c-.572,0-1.14.369-1.906,1.154a4.128,4.128,0,0,1-2.862,1.551,2.437,2.437,0,0,1-.993-.213c-1.551-.691-2.266-2.507-1.348-4.574a5.275,5.275,0,0,1,1.651-2.1m0-.946a.945.945,0,0,0-.549.175,6.182,6.182,0,0,0-1.963,2.488,4.85,4.85,0,0,0-.289,3.481A3.831,3.831,0,0,0,30.1,179.79a3.324,3.324,0,0,0,1.376.3,5.005,5.005,0,0,0,3.548-1.845c.553-.568.97-.861,1.22-.861a.711.711,0,0,1,.274.071.452.452,0,0,1,.284.3,1.433,1.433,0,0,1-.166.951,4.064,4.064,0,0,1-1.372,1.585.949.949,0,0,0-.123,1.5l1.14,1.031a.954.954,0,0,0,.634.246.934.934,0,0,0,.549-.175,6.962,6.962,0,0,0,2.171-2.8c1.187-2.672.478-5.132-1.764-6.13a3.933,3.933,0,0,0-1.594-.359,4.938,4.938,0,0,0-3.486,1.793c-.232.237-.941.951-1.235.951a.39.39,0,0,1-.151-.043.367.367,0,0,1-.218-.241,1.031,1.031,0,0,1,.1-.7,3.158,3.158,0,0,1,1.093-1.32.944.944,0,0,0,.118-1.476l-1.078-1a.883.883,0,0,0-.639-.265Z" transform="translate(-14.645 -90.274)" fill="#f4cfc9"/>
    <path id="Path_585" data-name="Path 585" d="M42.4,146.886l1.575.885a3,3,0,0,0-.378.535,2.683,2.683,0,0,0,.885,3.443,5.214,5.214,0,0,0,.733.511l4.891,2.753-.927,1.651-6.315-3.552c-1.078-.61-2.02-1.112-2.9-1.537l.823-1.462,1.835.955.043-.076a3.159,3.159,0,0,1-.582-3.671,2.258,2.258,0,0,1,.322-.435m0-.946a.953.953,0,0,0-.691.3,3.171,3.171,0,0,0-.459.624,3.763,3.763,0,0,0-.454,2.308h-.019a.94.94,0,0,0-.823.482l-.823,1.462a.939.939,0,0,0-.076.747.973.973,0,0,0,.492.568c.8.383,1.679.847,2.847,1.5l6.315,3.552a.957.957,0,0,0,.719.09.929.929,0,0,0,.568-.449l.927-1.651a.945.945,0,0,0-.359-1.287l-4.891-2.753a4.906,4.906,0,0,1-.605-.426,1.821,1.821,0,0,1-.653-2.242,2.26,2.26,0,0,1,.255-.369.951.951,0,0,0,.232-.785.934.934,0,0,0-.468-.672l-1.575-.885a.974.974,0,0,0-.459-.118Z" transform="translate(-20.564 -76.91)" fill="#f4cfc9"/>
    <path id="Path_586" data-name="Path 586" d="M54.633,131.406a5.99,5.99,0,0,1,3.15,1.012,6.679,6.679,0,0,1,.71.544l-4.044,6.192a4.092,4.092,0,0,0,2.176.7,3.432,3.432,0,0,0,2.857-1.731,6.975,6.975,0,0,0,1.14-2.739l1.324.478a8.574,8.574,0,0,1-1.367,3.292,4.892,4.892,0,0,1-4.125,2.46,5.807,5.807,0,0,1-3.15-1.026c-2.658-1.736-3.732-4.673-2.053-7.242a3.9,3.9,0,0,1,3.382-1.944m-1.32,6.977,3.056-4.683a3.73,3.73,0,0,0-2-.672,2.385,2.385,0,0,0-2.058,1.192c-1.055,1.627-.024,3.311,1,4.162m1.32-7.923h0a4.832,4.832,0,0,0-4.177,2.37c-1.892,2.9-.937,6.419,2.327,8.547a6.777,6.777,0,0,0,3.666,1.183,5.848,5.848,0,0,0,4.919-2.89,9.4,9.4,0,0,0,1.509-3.661.944.944,0,0,0-.615-1.036l-1.32-.473a.94.94,0,0,0-.795.071.952.952,0,0,0-.459.653,6.007,6.007,0,0,1-1,2.389,2.531,2.531,0,0,1-2.067,1.3,2.582,2.582,0,0,1-.8-.137l3.458-5.3a.95.95,0,0,0-.189-1.249l-.066-.052a7.669,7.669,0,0,0-.728-.549,6.911,6.911,0,0,0-3.666-1.168ZM53.2,136.836a1.834,1.834,0,0,1-.09-2.1,1.45,1.45,0,0,1,1.268-.766,2.343,2.343,0,0,1,.624.1l-1.8,2.762Z" transform="translate(-26.085 -68.752)" fill="#f4cfc9"/>
    <path id="Path_587" data-name="Path 587" d="M67.8,110.906l.908,1.249a4.438,4.438,0,0,0-1.75,1.452c-1.471,1.916-.856,4.035.889,5.378a4.2,4.2,0,0,0,2.554.951,3.5,3.5,0,0,0,2.8-1.447,5.436,5.436,0,0,0,1.017-2.181l1.339.615a7.011,7.011,0,0,1-1.362,2.767,5.052,5.052,0,0,1-4.025,2.152,5.623,5.623,0,0,1-3.429-1.272,5.354,5.354,0,0,1-.984-7.894,6.5,6.5,0,0,1,2.048-1.769m0-.946a.918.918,0,0,0-.412.095A7.3,7.3,0,0,0,65,112.1a6.286,6.286,0,0,0,1.154,9.219,6.6,6.6,0,0,0,4.006,1.466,6.008,6.008,0,0,0,4.777-2.521,7.923,7.923,0,0,0,1.542-3.179.943.943,0,0,0-.535-1.022l-1.339-.615a.956.956,0,0,0-.809.009.934.934,0,0,0-.506.624,4.473,4.473,0,0,1-.851,1.831,2.575,2.575,0,0,1-2.048,1.078,3.3,3.3,0,0,1-1.977-.752c-1.164-.894-1.963-2.427-.714-4.049a3.5,3.5,0,0,1,1.362-1.159.948.948,0,0,0,.4-1.433l-.908-1.249a.927.927,0,0,0-.757-.393Z" transform="translate(-33.465 -57.948)" fill="#f4cfc9"/>
    <path id="Path_588" data-name="Path 588" d="M69.789,98.206a1.226,1.226,0,0,1,.8.317,1.2,1.2,0,0,1-.766,2.1,1.2,1.2,0,0,1-.78-.3,1.168,1.168,0,0,1-.128-1.689,1.153,1.153,0,0,1,.875-.426m2.9,2.412,7.98,6.873-1.249,1.452-7.98-6.873,1.249-1.452m-2.9-3.358h0a2.09,2.09,0,0,0-1.589.752,2.122,2.122,0,0,0,.222,3.022,2.159,2.159,0,0,0,1.4.53,2.09,2.09,0,0,0,1.06-.293l-.156.184a.931.931,0,0,0-.227.686.957.957,0,0,0,.326.648l7.98,6.873a.927.927,0,0,0,.615.227.965.965,0,0,0,.719-.326l1.249-1.452a.931.931,0,0,0,.227-.686.957.957,0,0,0-.326-.648L73.308,99.9a.927.927,0,0,0-.615-.227.965.965,0,0,0-.719.326l-.184.213a2.082,2.082,0,0,0,.166-1.012,2.055,2.055,0,0,0-.762-1.4,2.15,2.15,0,0,0-1.4-.539Z" transform="translate(-35.665 -51.256)" fill="#f4cfc9"/>
    <path id="Path_589" data-name="Path 589" d="M88.827,86.2a5.791,5.791,0,0,1,3.983,1.816c2.7,2.654,2.417,5.61.681,7.379a3.885,3.885,0,0,1-2.734,1.235,3.08,3.08,0,0,1-.719-.085l-.028.033,4.082,4.011-1.329,1.348-8.131-7.994c-.96-.946-1.769-1.679-2.512-2.346l1.206-1.225,1.348,1.2.028-.033a4.314,4.314,0,0,1,4.125-5.34m1.263,9.261a2.934,2.934,0,0,0,2.1-.885c1.419-1.443,1.064-3.439-.662-5.132a4.382,4.382,0,0,0-2.961-1.381,2.791,2.791,0,0,0-2.029.87,3.058,3.058,0,0,0-.336,3.727,3.016,3.016,0,0,0,.468.643l1.287,1.268a4.289,4.289,0,0,0,.62.487,3.075,3.075,0,0,0,1.514.4M88.827,85.25a5.059,5.059,0,0,0-3.637,1.533,5.3,5.3,0,0,0-1.49,2.725.954.954,0,0,0-.378-.08.942.942,0,0,0-.676.284l-1.206,1.225a.945.945,0,0,0-.27.691.976.976,0,0,0,.312.676c.776.7,1.547,1.4,2.483,2.318l8.131,7.994a.948.948,0,0,0,1.339-.014l1.329-1.348a.948.948,0,0,0-.014-1.339l-2.611-2.564a5.2,5.2,0,0,0,2.024-1.291A5.429,5.429,0,0,0,95.757,92a6.96,6.96,0,0,0-2.285-4.659,6.728,6.728,0,0,0-4.645-2.091Zm.251,9a3.072,3.072,0,0,1-.454-.355l-1.287-1.268a2.521,2.521,0,0,1-.312-.445,2.118,2.118,0,0,1,.194-2.587,1.832,1.832,0,0,1,1.353-.587,3.47,3.47,0,0,1,2.3,1.112,3.885,3.885,0,0,1,1.235,2.119,1.909,1.909,0,0,1-.587,1.674,1.99,1.99,0,0,1-1.424.6,2.078,2.078,0,0,1-1.017-.265Z" transform="translate(-42.779 -44.926)" fill="#f4cfc9"/>
    <path id="Path_590" data-name="Path 590" d="M108.946,69.826a5.387,5.387,0,0,1,3.85,2.02,7.055,7.055,0,0,1,.53.719L107.7,77.37a3.629,3.629,0,0,0,2.729,1.41,3.722,3.722,0,0,0,2.393-.979,6.941,6.941,0,0,0,1.864-2.308l1.14.832a8.539,8.539,0,0,1-2.237,2.772,4.89,4.89,0,0,1-7.388-.672c-2.062-2.417-2.266-5.534.066-7.525a4.053,4.053,0,0,1,2.677-1.074m-2.119,6.49,4.252-3.633a3.32,3.32,0,0,0-2.393-1.305,2.491,2.491,0,0,0-1.646.667c-1.471,1.258-.955,3.164-.213,4.271m2.119-7.436h0a5.007,5.007,0,0,0-3.3,1.305,5.534,5.534,0,0,0-2.01,4.337,7.213,7.213,0,0,0,1.845,4.522,5.829,5.829,0,0,0,8.722.776,9.438,9.438,0,0,0,2.479-3.089.949.949,0,0,0-.3-1.168l-1.14-.832a.957.957,0,0,0-.558-.18.868.868,0,0,0-.222.028.955.955,0,0,0-.624.5,5.978,5.978,0,0,1-1.632,2.01,2.83,2.83,0,0,1-1.778.752,2.253,2.253,0,0,1-1.3-.44l4.81-4.115a.942.942,0,0,0,.166-1.253l-.047-.071a8.221,8.221,0,0,0-.544-.733,6.461,6.461,0,0,0-4.569-2.346ZM107.154,74.8a1.84,1.84,0,0,1,.5-2.034,1.585,1.585,0,0,1,1.031-.44,1.824,1.824,0,0,1,.97.331l-2.5,2.143Z" transform="translate(-54.62 -36.299)" fill="#f4cfc9"/>
    <path id="Path_591" data-name="Path 591" d="M126.078,56.306l.44,1.4a4.071,4.071,0,0,0-2.1.785,1.535,1.535,0,0,0-.568,2.2,1.258,1.258,0,0,0,1.116.539,6.176,6.176,0,0,0,1.556-.289,6.47,6.47,0,0,1,1.726-.274,2.747,2.747,0,0,1,2.379,1.2c1.1,1.49.714,3.391-1.3,4.872a5.98,5.98,0,0,1-2.81,1.173l-.478-1.457a5.053,5.053,0,0,0,2.483-.88c1.121-.823,1.235-1.774.719-2.474a1.491,1.491,0,0,0-1.31-.653,5.249,5.249,0,0,0-1.414.251,6.145,6.145,0,0,1-1.741.289,2.64,2.64,0,0,1-2.266-1.041c-1.008-1.367-.728-3.3,1.1-4.64a5.241,5.241,0,0,1,2.464-1m0-.946a.635.635,0,0,0-.095,0,6.207,6.207,0,0,0-2.937,1.187c-2.138,1.57-2.682,4.082-1.3,5.965a3.585,3.585,0,0,0,3.027,1.424,7.08,7.08,0,0,0,2.015-.326,4.414,4.414,0,0,1,1.14-.213.557.557,0,0,1,.549.265c.3.412-.114.856-.516,1.149a4.042,4.042,0,0,1-1.977.7.947.947,0,0,0-.847,1.239l.478,1.457a.944.944,0,0,0,.9.653.7.7,0,0,0,.1,0,6.967,6.967,0,0,0,3.273-1.353c2.351-1.731,2.956-4.219,1.5-6.2a3.712,3.712,0,0,0-3.141-1.58,7.4,7.4,0,0,0-1.977.307,5.8,5.8,0,0,1-1.3.251c-.232,0-.274-.047-.355-.151-.27-.364.213-.766.369-.88a3.2,3.2,0,0,1,1.6-.605.931.931,0,0,0,.714-.412.956.956,0,0,0,.123-.814l-.44-1.4a.969.969,0,0,0-.913-.662Z" transform="translate(-63.763 -29.174)" fill="#f4cfc9"/>
    <path id="Path_592" data-name="Path 592" d="M148.749,40.246l.927,1.547a2.844,2.844,0,0,0-.591.279,2.683,2.683,0,0,0-.937,3.429,5.842,5.842,0,0,0,.383.809l2.89,4.815L149.8,52.1l-3.727-6.215c-.639-1.064-1.206-1.968-1.764-2.772l1.438-.861,1.121,1.741.076-.043a3.157,3.157,0,0,1,1.315-3.477,1.761,1.761,0,0,1,.492-.227m0-.946a.921.921,0,0,0-.274.043,3.071,3.071,0,0,0-.71.317,3.784,3.784,0,0,0-1.537,1.783.932.932,0,0,0-.487-.132.917.917,0,0,0-.487.137l-1.438.861a.943.943,0,0,0-.293,1.348c.506.724,1.036,1.566,1.731,2.72l3.727,6.215a.945.945,0,0,0,1.3.322l1.622-.974a.948.948,0,0,0,.326-1.3l-2.89-4.815a4.546,4.546,0,0,1-.317-.672,1.818,1.818,0,0,1,.544-2.27,1.838,1.838,0,0,1,.407-.194.932.932,0,0,0,.587-.568.947.947,0,0,0-.076-.814l-.927-1.547a.936.936,0,0,0-.809-.464Z" transform="translate(-75.55 -20.711)" fill="#f4cfc9"/>
    <path id="Path_593" data-name="Path 593" d="M164.583,32.716c2.006,0,3.443,1.637,4.12,2.952a7.352,7.352,0,0,1,.35.823l-6.579,3.377a3.419,3.419,0,0,0,3.041,2.086,4.08,4.08,0,0,0,1.845-.482,6.894,6.894,0,0,0,2.346-1.816l.918,1.069A8.558,8.558,0,0,1,167.8,42.9a5.684,5.684,0,0,1-2.6.676,5.008,5.008,0,0,1-4.437-3.037c-1.452-2.829-.927-5.908,1.8-7.308a4.428,4.428,0,0,1,2.01-.52m-2.715,5.927,4.976-2.554a3.053,3.053,0,0,0-2.535-1.883,2.729,2.729,0,0,0-1.244.326c-1.731.885-1.67,2.862-1.2,4.11m2.715-6.873h0a5.339,5.339,0,0,0-2.45.634,5.563,5.563,0,0,0-2.961,3.756,7.265,7.265,0,0,0,.747,4.829,5.95,5.95,0,0,0,5.274,3.552,6.591,6.591,0,0,0,3.027-.785,9.417,9.417,0,0,0,3.127-2.431.943.943,0,0,0-.024-1.206l-.918-1.069a.956.956,0,0,0-.719-.331h0a.935.935,0,0,0-.719.341,5.936,5.936,0,0,1-2.053,1.58,3.168,3.168,0,0,1-1.41.378,2.168,2.168,0,0,1-1.656-.785l5.629-2.89a.947.947,0,0,0,.454-1.178l-.028-.08a6.9,6.9,0,0,0-.364-.837,5.864,5.864,0,0,0-4.952-3.477Zm-2.053,5.468a1.842,1.842,0,0,1,.96-1.864,1.82,1.82,0,0,1,.814-.222,1.616,1.616,0,0,1,1.159.582l-2.933,1.5Z" transform="translate(-83.811 -16.743)" fill="#f4cfc9"/>
    <path id="Path_594" data-name="Path 594" d="M187.346,22.046c.076,0,.147,0,.213,0l.17,1.533a3.061,3.061,0,0,0-.378-.024,4.851,4.851,0,0,0-1.859.416c-2.228.932-2.743,3.084-1.9,5.108a3.719,3.719,0,0,0,3.41,2.531,3.881,3.881,0,0,0,1.481-.307,5.492,5.492,0,0,0,1.968-1.391l.856,1.2a7.047,7.047,0,0,1-2.554,1.731,5.838,5.838,0,0,1-2.247.478,5.044,5.044,0,0,1-4.664-3.41,5.346,5.346,0,0,1,3.06-7.341,6.733,6.733,0,0,1,2.441-.525m0-.946a7.8,7.8,0,0,0-2.81.6,6.287,6.287,0,0,0-3.566,8.58,6.012,6.012,0,0,0,5.534,3.992,6.718,6.718,0,0,0,2.616-.553,8.057,8.057,0,0,0,2.918-2,.945.945,0,0,0,.043-1.154l-.856-1.2a.937.937,0,0,0-.7-.393h-.066a.941.941,0,0,0-.686.293,4.548,4.548,0,0,1-1.646,1.168,2.905,2.905,0,0,1-1.116.237,2.8,2.8,0,0,1-2.535-1.949,3.327,3.327,0,0,1-.18-2.3,2.589,2.589,0,0,1,1.57-1.57,3.962,3.962,0,0,1,1.495-.345,2.421,2.421,0,0,1,.265.014.918.918,0,0,0,.114.009.962.962,0,0,0,.667-.274.935.935,0,0,0,.274-.776l-.17-1.533a.954.954,0,0,0-.875-.842c-.09,0-.184-.009-.284-.009Z" transform="translate(-95.07 -11.12)" fill="#f4cfc9"/>
    <path id="Path_595" data-name="Path 595" d="M197.91,10.516a1.15,1.15,0,0,1,1.078.814,1.131,1.131,0,0,1-.757,1.514,1.222,1.222,0,0,1-.4.071,1.144,1.144,0,0,1-1.078-.795,1.165,1.165,0,0,1,.728-1.528,1.312,1.312,0,0,1,.43-.076m1.859,3.675,3.514,9.928-1.807.639-3.514-9.928,1.807-.639M197.91,9.57h0a2.166,2.166,0,0,0-.747.132,2.121,2.121,0,0,0-1.305,2.734,2.083,2.083,0,0,0,1.972,1.424h.043l-.222.08a.946.946,0,0,0-.577,1.206l3.514,9.928a.966.966,0,0,0,.482.539.943.943,0,0,0,.407.09,1.035,1.035,0,0,0,.317-.052l1.807-.639a.946.946,0,0,0,.577-1.206l-3.514-9.928a.966.966,0,0,0-.482-.539.943.943,0,0,0-.407-.09,1.035,1.035,0,0,0-.317.052l-.265.095a2.083,2.083,0,0,0,.648-.8,2.058,2.058,0,0,0,.038-1.6A2.1,2.1,0,0,0,197.91,9.57Z" transform="translate(-103.152 -5.043)" fill="#f4cfc9"/>
    <path id="Path_596" data-name="Path 596" d="M216.734,11.746c2.024,0,3.864,1.514,4.593,4.106,1.026,3.647-.691,6.069-3.075,6.74a4.438,4.438,0,0,1-1.2.17,3.43,3.43,0,0,1-2.37-.885l-.043.009,1.547,5.511-1.821.511L211.28,16.935c-.364-1.3-.7-2.332-1.012-3.287l1.656-.464L212.5,14.9l.043-.009a4.137,4.137,0,0,1,3.051-2.98,4.187,4.187,0,0,1,1.145-.166m-.014,9.607a2.981,2.981,0,0,0,.809-.114c1.949-.549,2.63-2.46,1.977-4.782-.487-1.736-1.7-3.041-3.254-3.041a3.009,3.009,0,0,0-.823.118,3.053,3.053,0,0,0-2.143,3.065,3.016,3.016,0,0,0,.085.79l.487,1.741a3.965,3.965,0,0,0,.3.728,2.977,2.977,0,0,0,2.564,1.495m.014-10.553a5.116,5.116,0,0,0-1.4.2,5.3,5.3,0,0,0-2.649,1.622.952.952,0,0,0-.757-.378.8.8,0,0,0-.255.038l-1.655.464a.931.931,0,0,0-.577.464.915.915,0,0,0-.061.738c.326.993.648,1.987,1,3.245l3.084,10.974a.948.948,0,0,0,.908.691.8.8,0,0,0,.255-.038l1.821-.511a.929.929,0,0,0,.568-.449.952.952,0,0,0,.085-.719l-.993-3.529a4.741,4.741,0,0,0,.941.09,5.55,5.55,0,0,0,1.457-.2,5.452,5.452,0,0,0,3.4-2.729,6.964,6.964,0,0,0,.331-5.179c-.818-2.9-2.975-4.787-5.5-4.787Zm-1.741,8.609a3.626,3.626,0,0,1-.218-.534l-.487-1.741a2.426,2.426,0,0,1-.052-.544,2.119,2.119,0,0,1,1.452-2.147,2.191,2.191,0,0,1,.568-.08c1.022,0,1.944.922,2.341,2.351.2.7.691,3.051-1.324,3.614a2.027,2.027,0,0,1-.553.076,2,2,0,0,1-1.726-.993Z" transform="translate(-110.315 -5.692)" fill="#f4cfc9"/>
    <path id="Path_597" data-name="Path 597" d="M242.136,6.376c2.71,0,3.926,2.445,4.252,4.162a7.251,7.251,0,0,1,.1.889l-7.27,1.367a3.316,3.316,0,0,0,3.363,3.008,4.463,4.463,0,0,0,.861-.085,7.008,7.008,0,0,0,2.767-1.074l.572,1.287a8.523,8.523,0,0,1-3.32,1.291,6.434,6.434,0,0,1-1.211.118c-2.549,0-4.352-1.665-4.858-4.38-.587-3.122.79-5.927,3.8-6.494a5.177,5.177,0,0,1,.941-.09m-3.15,5.066,5.5-1.031a2.815,2.815,0,0,0-2.6-2.625,3.274,3.274,0,0,0-.587.057c-1.906.359-2.408,2.27-2.313,3.6m3.15-6.012h0a6.108,6.108,0,0,0-1.116.109c-3.406.639-5.279,3.765-4.56,7.6.6,3.179,2.814,5.151,5.79,5.151a7.422,7.422,0,0,0,1.386-.132,9.418,9.418,0,0,0,3.689-1.443.942.942,0,0,0,.322-1.159l-.572-1.287a.949.949,0,0,0-.6-.525,1,1,0,0,0-.265-.038.948.948,0,0,0-.525.156,6.045,6.045,0,0,1-2.417.932,3.865,3.865,0,0,1-.686.066,2.2,2.2,0,0,1-2.143-1.329l6.22-1.168a.945.945,0,0,0,.766-1l0-.085a7.674,7.674,0,0,0-.109-.908c-.421-2.275-2.034-4.933-5.175-4.933Zm-2.114,4.858a1.841,1.841,0,0,1,1.452-1.514,2.172,2.172,0,0,1,.412-.043,1.522,1.522,0,0,1,1.381.946l-3.245.61Z" transform="translate(-124.536 -2.862)" fill="#f4cfc9"/>
    <path id="Path_598" data-name="Path 598" d="M264.379,3.266a5.054,5.054,0,0,1,2.01.393L266.072,5.1a4.054,4.054,0,0,0-1.745-.388,3.93,3.93,0,0,0-.464.028c-1.126.128-1.679.847-1.589,1.627.1.866.771,1.183,2.19,1.547,1.9.487,2.928,1.291,3.1,2.847.208,1.84-1.074,3.3-3.557,3.576a7.433,7.433,0,0,1-.79.043,5.558,5.558,0,0,1-2.233-.426l.312-1.5a5.1,5.1,0,0,0,2.162.5c.147,0,.289-.009.435-.024,1.386-.156,1.953-.922,1.854-1.788-.1-.908-.7-1.343-2.162-1.7-1.958-.459-2.961-1.4-3.1-2.649C260.3,5.092,261.5,3.555,263.75,3.3c.213-.019.426-.033.629-.033m0-.946a6.516,6.516,0,0,0-.743.043c-2.639.3-4.361,2.2-4.1,4.527.137,1.206.913,2.781,3.827,3.462,1.376.341,1.41.62,1.438.889a.468.468,0,0,1-.118.4,1.441,1.441,0,0,1-.9.341c-.1.009-.213.019-.326.019a4.2,4.2,0,0,1-1.736-.4.953.953,0,0,0-.426-.1.969.969,0,0,0-.411.095.956.956,0,0,0-.516.657l-.312,1.5a.948.948,0,0,0,.539,1.055,6.506,6.506,0,0,0,2.62.506,8.094,8.094,0,0,0,.894-.052c2.9-.326,4.669-2.185,4.394-4.626-.279-2.474-2.308-3.273-3.808-3.656-1.443-.369-1.466-.568-1.485-.738-.052-.454.568-.558.757-.577a2.971,2.971,0,0,1,.355-.019,3.135,3.135,0,0,1,1.334.293.97.97,0,0,0,.412.095.945.945,0,0,0,.922-.743l.317-1.438a.946.946,0,0,0-.534-1.069,6,6,0,0,0-2.393-.473Z" transform="translate(-136.765 -1.223)" fill="#f4cfc9"/>
  </g>
</svg>
