<svg xmlns="http://www.w3.org/2000/svg" width="232" height="231" viewBox="0 0 232 231">
  <g id="Group_92" data-name="Group 92" transform="translate(-845 -381)">
    <g id="Group_90" data-name="Group 90">
      <g id="Group_89" data-name="Group 89">
        <ellipse id="Ellipse_15" data-name="Ellipse 15" cx="116" cy="115.5" rx="116" ry="115.5" transform="translate(845 381)" fill="#f4cfc9"/>
      </g>
    </g>
    <g id="Group_81" data-name="Group 81" transform="translate(861.275 397.661)">
      <path id="Path_366" data-name="Path 366" d="M254.114,23.33l-11.8,4.678c-.357.065-.713.139-1.07.218a28.109,28.109,0,0,0-18.9,15.229c-8.791,17.383-2.316,41.977,14.437,54.831a35.254,35.254,0,0,0,21.26,7.689,28.4,28.4,0,0,0,5.026-.449c-6.614,2.288-16.41,1.491-28.745-2.385a6.643,6.643,0,0,0-7,1.876A6.729,6.729,0,0,0,225.81,112c.6,1.5,2.344,3.956,7.383,4.766-4.706,1.663-7.059,5.262-6.471,9.972.75,5.989,6.54,12.608,13.96,12.918.213.009.417.014.625.014,6.156,0,9.31-4.016,14.886-11.121.736-.936,1.515-1.927,2.348-2.974.347-.435.709-.88,1.075-1.334,3.085-3.8,6.276-7.726,4.877-10.176-1.269-2.223-6.258-2.663-15.252-1.334a1.379,1.379,0,0,1-1.417-.449.572.572,0,0,1-.032-.625c.167-.259.56-.366,1.088-.292a33.755,33.755,0,0,0,4.8.357c17,0,25.155-13.877,26.98-17.462a32.2,32.2,0,0,0,2.543-4.206c8.791-17.383,2.316-41.978-14.437-54.831a38.1,38.1,0,0,0-12.117-6.3l19.2-6.966-.278-.259c-.042-.037-1.047-.959-4.84-3.687-10.852-7.814-19.514-8.425-19.6-8.43l-.3-.019.88,4.284ZM234.8,42.783c1.82,0,4.539,1.07,7.842,3.126A84.531,84.531,0,0,1,258.533,59.5C269.381,71.06,276,83.214,272.989,86.035c-1.427,1.334-4.951.412-9.671-2.529a84.386,84.386,0,0,1-15.892-13.59,84.555,84.555,0,0,1-12.547-16.725c-2.635-4.9-3.33-8.476-1.908-9.815A2.626,2.626,0,0,1,234.8,42.783Zm14.1,71.922c3.376-.875,6.563-1.7,7.225-1.19a.236.236,0,0,1,.093.208c0,1-1.473,2.858-3.937,4.247-2.408,1.357-8.856,3.914-17.559-1.019.158.014.32.023.482.037C239.177,117.234,244.564,115.831,248.9,114.705Z" transform="translate(-117.252 -5.133)"/>
      <path id="Path_367" data-name="Path 367" d="M168.279,235.047l-.134-.019c-5.9-.806-41.857-5.915-42.218-5.966l-.232-.032-.028.232c-.014.125-.384,3.038-.459,4.145l-.014.2.2.042c4.715.963,7.763,3.455,8.573,7.017.848,3.715-.885,7.967-4.312,10.584-3.71,2.825-8.458,3.038-13.034.584-7.758-4.169-10.486-17.225-9.138-27.5,9.741,1.126,59.282,8.518,59.782,8.592l.375.056-1.107-3.284-.139-.023c-7.7-1.232-7.7-15.192-7.7-28.694,0-14.159,0-27.531-7.99-28.518-5.683-.7-15.943,4.493-25.558,12.927-7.869,6.9-26.2,25.8-26.41,52.163-.079,9.838,2.094,42.607,33.367,51.32a33.355,33.355,0,0,0,8.972,1.237,30.984,30.984,0,0,0,23.071-10.083c9.588-10.565,11.112-26.91,4.187-44.849Zm-60.014-12.529c1.88-10.357,12.038-15.373,20.445-14.076,6.966,1.07,13.8,6.591,12.177,18.856-2.265-.32-8.342-1.218-14.766-2.168C118.557,224.009,110.739,222.851,108.265,222.518Z" transform="translate(-53.005 -92.552)"/>
      <path id="Path_368" data-name="Path 368" d="M331.461,99.359c-3.909-8.221-8.3-13.265-11.742-13.488a3.723,3.723,0,0,0-3.455,1.992c-1.89,2.927-1.246,7.582-.435,13.478,1.9,13.784,4.775,34.613-19.727,58.689-24.947,24.511-32.617,46.123-31.477,58.17.482,5.067,2.473,8.907,5.762,11.1a18.54,18.54,0,0,0,10.454,3.015,31.388,31.388,0,0,0,13.525-3.465c9.847-4.766,19.852-14.025,28.921-26.771,11.348-15.947,17.434-35.525,17.6-56.623C341.025,129.284,337.5,112.05,331.461,99.359Zm-25.5,78.943c.292-16.443,3.3-27.452,5.924-27.452h.018c1.376.023,2.71,2.946,3.655,8.018a102.559,102.559,0,0,1,1.311,19.625c-.292,16.443-3.3,27.452-5.924,27.452h-.019C308.292,205.9,305.666,194.777,305.958,178.3Z" transform="translate(-142 -46.094)"/>
      <path id="Path_369" data-name="Path 369" d="M44.091,167.98c-2.844-10.848-4.715-28.281,2.506-49.726,5.206-15.47,17.346-24.729,30.194-34.53,4.108-3.131,8.351-6.369,12.367-9.833C94.29,69.468,95.5,62.048,96.786,54.2c1.274-7.781,2.589-15.831,7.7-22.149,8.763-10.824,26.623-15.785,26.8-15.831l.208-.056L129.195,3.785l-.125-.046c-.162-.051-15.211-5.294-37.638-3.275S49.714,13.845,49.519,13.956l-.153.088.046.171c.014.051,1.325,4.905,1.626,6.508l.042.213.218-.028a9.084,9.084,0,0,1,9.958,6.447c.987,3.659-.6,8.7-8.036,11.876C38.774,45.4,28.009,60.885,22.9,82.839c-5.66,24.321-2.747,43.863.695,55.979a83.222,83.222,0,0,0,7.772,18.828,89.082,89.082,0,0,1-12.872-18.508c-6.072-11.593-12.376-30.037-7.939-52.07A135.25,135.25,0,0,1,28.306,42.182C34.906,31.668,40.793,25.9,41.7,25.369c1.561-.908,3.441-1.922,3.46-1.936l.162-.088-1.8-6.609-.245.111c-.079.037-7.957,3.641-18.768,12.936-11.63,10-21.88,27.119-21.982,27.29l-.1.176,3.145,2.473.139-.088c.621-.4,1.181-.459,1.533-.148a1.426,1.426,0,0,1,.171,1.644h0c-6.406,13.812-11.931,36.568-1.9,66.5C17.227,162.58,51.4,186.66,51.747,186.9l1.121.783-.806-1.107C52.02,186.507,47.166,179.736,44.091,167.98Z" transform="translate(-0.002 -0.001)"/>
    </g>
  </g>
</svg>
